%TF.GenerationSoftware,KiCad,Pcbnew,9.0.7*%
%TF.CreationDate,2026-07-14T21:47:03-03:00*%
%TF.ProjectId,sht45-qt,73687434-352d-4717-942e-6b696361645f,1.0*%
%TF.SameCoordinates,Original*%
%TF.FileFunction,Drillmap*%
%TF.FilePolarity,Positive*%
%FSLAX45Y45*%
G04 Gerber Fmt 4.5, Leading zero omitted, Abs format (unit mm)*
G04 Created by KiCad (PCBNEW 9.0.7) date 2026-07-14 21:47:03*
%MOMM*%
%LPD*%
G01*
G04 APERTURE LIST*
%ADD10C,0.100000*%
%ADD11C,0.200000*%
%ADD12C,0.270000*%
G04 APERTURE END LIST*
D10*
X10000000Y-10160000D02*
G75*
G02*
X10160000Y-10000000I160000J0D01*
G01*
X10160000Y-12032000D02*
G75*
G02*
X10000000Y-11872000I0J160000D01*
G01*
X12380000Y-12032000D02*
X10160000Y-12032000D01*
X12540000Y-11872000D02*
G75*
G02*
X12380000Y-12032000I-160000J0D01*
G01*
X11020000Y-10640000D02*
X11620000Y-10640000D01*
X11620000Y-10260000D01*
X11740000Y-10260000D01*
X11740000Y-10760000D01*
X10900000Y-10760000D01*
X10900000Y-10260000D01*
X11020000Y-10260000D01*
X11020000Y-10640000D01*
X12380000Y-10000000D02*
G75*
G02*
X12540000Y-10160000I0J-160000D01*
G01*
X10160000Y-10000000D02*
X12380000Y-10000000D01*
X12540000Y-10160000D02*
X12540000Y-11872000D01*
X10000000Y-11872000D02*
X10000000Y-10160000D01*
D11*
D10*
X10385000Y-10185000D02*
X10415000Y-10215000D01*
X10415000Y-10185000D02*
X10385000Y-10215000D01*
X10445000Y-10535000D02*
X10475000Y-10565000D01*
X10475000Y-10535000D02*
X10445000Y-10565000D01*
X10485000Y-11915000D02*
X10515000Y-11945000D01*
X10515000Y-11915000D02*
X10485000Y-11945000D01*
X10650000Y-11135000D02*
X10680000Y-11165000D01*
X10680000Y-11135000D02*
X10650000Y-11165000D01*
X10680000Y-11035000D02*
X10710000Y-11065000D01*
X10710000Y-11035000D02*
X10680000Y-11065000D01*
X10915000Y-11335000D02*
X10945000Y-11365000D01*
X10945000Y-11335000D02*
X10915000Y-11365000D01*
X11045000Y-11345000D02*
X11075000Y-11375000D01*
X11075000Y-11345000D02*
X11045000Y-11375000D01*
X11175000Y-10830000D02*
X11205000Y-10860000D01*
X11205000Y-10830000D02*
X11175000Y-10860000D01*
X11185000Y-11935000D02*
X11215000Y-11965000D01*
X11215000Y-11935000D02*
X11185000Y-11965000D01*
X11475000Y-11345000D02*
X11505000Y-11375000D01*
X11505000Y-11345000D02*
X11475000Y-11375000D01*
X11535000Y-10465000D02*
X11565000Y-10495000D01*
X11565000Y-10465000D02*
X11535000Y-10495000D01*
X11885000Y-10835000D02*
X11915000Y-10865000D01*
X11915000Y-10835000D02*
X11885000Y-10865000D01*
X11955000Y-10935000D02*
X11985000Y-10965000D01*
X11985000Y-10935000D02*
X11955000Y-10965000D01*
X12025000Y-11935000D02*
X12055000Y-11965000D01*
X12055000Y-11935000D02*
X12025000Y-11965000D01*
X12065000Y-10535000D02*
X12095000Y-10565000D01*
X12095000Y-10535000D02*
X12065000Y-10565000D01*
X12105000Y-10185000D02*
X12135000Y-10215000D01*
X12135000Y-10185000D02*
X12105000Y-10215000D01*
X10939000Y-11811000D02*
G75*
G02*
X10839000Y-11811000I-50000J0D01*
G01*
X10839000Y-11811000D02*
G75*
G02*
X10939000Y-11811000I50000J0D01*
G01*
X11193000Y-11811000D02*
G75*
G02*
X11093000Y-11811000I-50000J0D01*
G01*
X11093000Y-11811000D02*
G75*
G02*
X11193000Y-11811000I50000J0D01*
G01*
X11447000Y-11811000D02*
G75*
G02*
X11347000Y-11811000I-50000J0D01*
G01*
X11347000Y-11811000D02*
G75*
G02*
X11447000Y-11811000I50000J0D01*
G01*
X11701000Y-11811000D02*
G75*
G02*
X11601000Y-11811000I-50000J0D01*
G01*
X11601000Y-11811000D02*
G75*
G02*
X11701000Y-11811000I50000J0D01*
G01*
D12*
X10340000Y-11595000D02*
X10340000Y-11865000D01*
X10205000Y-11730000D02*
X10475000Y-11730000D01*
X12200000Y-11595000D02*
X12200000Y-11865000D01*
X12065000Y-11730000D02*
X12335000Y-11730000D01*
D11*
X10255777Y-12348484D02*
X10255777Y-12148484D01*
X10255777Y-12148484D02*
X10303396Y-12148484D01*
X10303396Y-12148484D02*
X10331967Y-12158008D01*
X10331967Y-12158008D02*
X10351015Y-12177055D01*
X10351015Y-12177055D02*
X10360539Y-12196103D01*
X10360539Y-12196103D02*
X10370063Y-12234198D01*
X10370063Y-12234198D02*
X10370063Y-12262769D01*
X10370063Y-12262769D02*
X10360539Y-12300865D01*
X10360539Y-12300865D02*
X10351015Y-12319912D01*
X10351015Y-12319912D02*
X10331967Y-12338960D01*
X10331967Y-12338960D02*
X10303396Y-12348484D01*
X10303396Y-12348484D02*
X10255777Y-12348484D01*
X10455777Y-12348484D02*
X10455777Y-12215150D01*
X10455777Y-12253246D02*
X10465301Y-12234198D01*
X10465301Y-12234198D02*
X10474824Y-12224674D01*
X10474824Y-12224674D02*
X10493872Y-12215150D01*
X10493872Y-12215150D02*
X10512920Y-12215150D01*
X10579586Y-12348484D02*
X10579586Y-12215150D01*
X10579586Y-12148484D02*
X10570063Y-12158008D01*
X10570063Y-12158008D02*
X10579586Y-12167531D01*
X10579586Y-12167531D02*
X10589110Y-12158008D01*
X10589110Y-12158008D02*
X10579586Y-12148484D01*
X10579586Y-12148484D02*
X10579586Y-12167531D01*
X10703396Y-12348484D02*
X10684348Y-12338960D01*
X10684348Y-12338960D02*
X10674824Y-12319912D01*
X10674824Y-12319912D02*
X10674824Y-12148484D01*
X10808158Y-12348484D02*
X10789110Y-12338960D01*
X10789110Y-12338960D02*
X10779586Y-12319912D01*
X10779586Y-12319912D02*
X10779586Y-12148484D01*
X11036729Y-12348484D02*
X11036729Y-12148484D01*
X11036729Y-12148484D02*
X11103396Y-12291341D01*
X11103396Y-12291341D02*
X11170063Y-12148484D01*
X11170063Y-12148484D02*
X11170063Y-12348484D01*
X11351015Y-12348484D02*
X11351015Y-12243722D01*
X11351015Y-12243722D02*
X11341491Y-12224674D01*
X11341491Y-12224674D02*
X11322443Y-12215150D01*
X11322443Y-12215150D02*
X11284348Y-12215150D01*
X11284348Y-12215150D02*
X11265301Y-12224674D01*
X11351015Y-12338960D02*
X11331967Y-12348484D01*
X11331967Y-12348484D02*
X11284348Y-12348484D01*
X11284348Y-12348484D02*
X11265301Y-12338960D01*
X11265301Y-12338960D02*
X11255777Y-12319912D01*
X11255777Y-12319912D02*
X11255777Y-12300865D01*
X11255777Y-12300865D02*
X11265301Y-12281817D01*
X11265301Y-12281817D02*
X11284348Y-12272293D01*
X11284348Y-12272293D02*
X11331967Y-12272293D01*
X11331967Y-12272293D02*
X11351015Y-12262769D01*
X11446253Y-12215150D02*
X11446253Y-12415150D01*
X11446253Y-12224674D02*
X11465301Y-12215150D01*
X11465301Y-12215150D02*
X11503396Y-12215150D01*
X11503396Y-12215150D02*
X11522443Y-12224674D01*
X11522443Y-12224674D02*
X11531967Y-12234198D01*
X11531967Y-12234198D02*
X11541491Y-12253246D01*
X11541491Y-12253246D02*
X11541491Y-12310388D01*
X11541491Y-12310388D02*
X11531967Y-12329436D01*
X11531967Y-12329436D02*
X11522443Y-12338960D01*
X11522443Y-12338960D02*
X11503396Y-12348484D01*
X11503396Y-12348484D02*
X11465301Y-12348484D01*
X11465301Y-12348484D02*
X11446253Y-12338960D01*
X11627205Y-12329436D02*
X11636729Y-12338960D01*
X11636729Y-12338960D02*
X11627205Y-12348484D01*
X11627205Y-12348484D02*
X11617682Y-12338960D01*
X11617682Y-12338960D02*
X11627205Y-12329436D01*
X11627205Y-12329436D02*
X11627205Y-12348484D01*
X11627205Y-12224674D02*
X11636729Y-12234198D01*
X11636729Y-12234198D02*
X11627205Y-12243722D01*
X11627205Y-12243722D02*
X11617682Y-12234198D01*
X11617682Y-12234198D02*
X11627205Y-12224674D01*
X11627205Y-12224674D02*
X11627205Y-12243722D01*
D10*
X9965000Y-12662000D02*
X9995000Y-12692000D01*
X9995000Y-12662000D02*
X9965000Y-12692000D01*
D11*
X10293872Y-12568484D02*
X10312920Y-12568484D01*
X10312920Y-12568484D02*
X10331967Y-12578008D01*
X10331967Y-12578008D02*
X10341491Y-12587531D01*
X10341491Y-12587531D02*
X10351015Y-12606579D01*
X10351015Y-12606579D02*
X10360539Y-12644674D01*
X10360539Y-12644674D02*
X10360539Y-12692293D01*
X10360539Y-12692293D02*
X10351015Y-12730388D01*
X10351015Y-12730388D02*
X10341491Y-12749436D01*
X10341491Y-12749436D02*
X10331967Y-12758960D01*
X10331967Y-12758960D02*
X10312920Y-12768484D01*
X10312920Y-12768484D02*
X10293872Y-12768484D01*
X10293872Y-12768484D02*
X10274824Y-12758960D01*
X10274824Y-12758960D02*
X10265301Y-12749436D01*
X10265301Y-12749436D02*
X10255777Y-12730388D01*
X10255777Y-12730388D02*
X10246253Y-12692293D01*
X10246253Y-12692293D02*
X10246253Y-12644674D01*
X10246253Y-12644674D02*
X10255777Y-12606579D01*
X10255777Y-12606579D02*
X10265301Y-12587531D01*
X10265301Y-12587531D02*
X10274824Y-12578008D01*
X10274824Y-12578008D02*
X10293872Y-12568484D01*
X10446253Y-12749436D02*
X10455777Y-12758960D01*
X10455777Y-12758960D02*
X10446253Y-12768484D01*
X10446253Y-12768484D02*
X10436729Y-12758960D01*
X10436729Y-12758960D02*
X10446253Y-12749436D01*
X10446253Y-12749436D02*
X10446253Y-12768484D01*
X10522444Y-12568484D02*
X10646253Y-12568484D01*
X10646253Y-12568484D02*
X10579586Y-12644674D01*
X10579586Y-12644674D02*
X10608158Y-12644674D01*
X10608158Y-12644674D02*
X10627205Y-12654198D01*
X10627205Y-12654198D02*
X10636729Y-12663722D01*
X10636729Y-12663722D02*
X10646253Y-12682769D01*
X10646253Y-12682769D02*
X10646253Y-12730388D01*
X10646253Y-12730388D02*
X10636729Y-12749436D01*
X10636729Y-12749436D02*
X10627205Y-12758960D01*
X10627205Y-12758960D02*
X10608158Y-12768484D01*
X10608158Y-12768484D02*
X10551015Y-12768484D01*
X10551015Y-12768484D02*
X10531967Y-12758960D01*
X10531967Y-12758960D02*
X10522444Y-12749436D01*
X10770063Y-12568484D02*
X10789110Y-12568484D01*
X10789110Y-12568484D02*
X10808158Y-12578008D01*
X10808158Y-12578008D02*
X10817682Y-12587531D01*
X10817682Y-12587531D02*
X10827205Y-12606579D01*
X10827205Y-12606579D02*
X10836729Y-12644674D01*
X10836729Y-12644674D02*
X10836729Y-12692293D01*
X10836729Y-12692293D02*
X10827205Y-12730388D01*
X10827205Y-12730388D02*
X10817682Y-12749436D01*
X10817682Y-12749436D02*
X10808158Y-12758960D01*
X10808158Y-12758960D02*
X10789110Y-12768484D01*
X10789110Y-12768484D02*
X10770063Y-12768484D01*
X10770063Y-12768484D02*
X10751015Y-12758960D01*
X10751015Y-12758960D02*
X10741491Y-12749436D01*
X10741491Y-12749436D02*
X10731967Y-12730388D01*
X10731967Y-12730388D02*
X10722444Y-12692293D01*
X10722444Y-12692293D02*
X10722444Y-12644674D01*
X10722444Y-12644674D02*
X10731967Y-12606579D01*
X10731967Y-12606579D02*
X10741491Y-12587531D01*
X10741491Y-12587531D02*
X10751015Y-12578008D01*
X10751015Y-12578008D02*
X10770063Y-12568484D01*
X10960539Y-12568484D02*
X10979586Y-12568484D01*
X10979586Y-12568484D02*
X10998634Y-12578008D01*
X10998634Y-12578008D02*
X11008158Y-12587531D01*
X11008158Y-12587531D02*
X11017682Y-12606579D01*
X11017682Y-12606579D02*
X11027205Y-12644674D01*
X11027205Y-12644674D02*
X11027205Y-12692293D01*
X11027205Y-12692293D02*
X11017682Y-12730388D01*
X11017682Y-12730388D02*
X11008158Y-12749436D01*
X11008158Y-12749436D02*
X10998634Y-12758960D01*
X10998634Y-12758960D02*
X10979586Y-12768484D01*
X10979586Y-12768484D02*
X10960539Y-12768484D01*
X10960539Y-12768484D02*
X10941491Y-12758960D01*
X10941491Y-12758960D02*
X10931967Y-12749436D01*
X10931967Y-12749436D02*
X10922444Y-12730388D01*
X10922444Y-12730388D02*
X10912920Y-12692293D01*
X10912920Y-12692293D02*
X10912920Y-12644674D01*
X10912920Y-12644674D02*
X10922444Y-12606579D01*
X10922444Y-12606579D02*
X10931967Y-12587531D01*
X10931967Y-12587531D02*
X10941491Y-12578008D01*
X10941491Y-12578008D02*
X10960539Y-12568484D01*
X11112920Y-12768484D02*
X11112920Y-12635150D01*
X11112920Y-12654198D02*
X11122444Y-12644674D01*
X11122444Y-12644674D02*
X11141491Y-12635150D01*
X11141491Y-12635150D02*
X11170063Y-12635150D01*
X11170063Y-12635150D02*
X11189110Y-12644674D01*
X11189110Y-12644674D02*
X11198634Y-12663722D01*
X11198634Y-12663722D02*
X11198634Y-12768484D01*
X11198634Y-12663722D02*
X11208158Y-12644674D01*
X11208158Y-12644674D02*
X11227205Y-12635150D01*
X11227205Y-12635150D02*
X11255777Y-12635150D01*
X11255777Y-12635150D02*
X11274824Y-12644674D01*
X11274824Y-12644674D02*
X11284348Y-12663722D01*
X11284348Y-12663722D02*
X11284348Y-12768484D01*
X11379586Y-12768484D02*
X11379586Y-12635150D01*
X11379586Y-12654198D02*
X11389110Y-12644674D01*
X11389110Y-12644674D02*
X11408158Y-12635150D01*
X11408158Y-12635150D02*
X11436729Y-12635150D01*
X11436729Y-12635150D02*
X11455777Y-12644674D01*
X11455777Y-12644674D02*
X11465301Y-12663722D01*
X11465301Y-12663722D02*
X11465301Y-12768484D01*
X11465301Y-12663722D02*
X11474824Y-12644674D01*
X11474824Y-12644674D02*
X11493872Y-12635150D01*
X11493872Y-12635150D02*
X11522443Y-12635150D01*
X11522443Y-12635150D02*
X11541491Y-12644674D01*
X11541491Y-12644674D02*
X11551015Y-12663722D01*
X11551015Y-12663722D02*
X11551015Y-12768484D01*
X11941491Y-12558960D02*
X11770063Y-12816103D01*
X12198634Y-12568484D02*
X12217682Y-12568484D01*
X12217682Y-12568484D02*
X12236729Y-12578008D01*
X12236729Y-12578008D02*
X12246253Y-12587531D01*
X12246253Y-12587531D02*
X12255777Y-12606579D01*
X12255777Y-12606579D02*
X12265301Y-12644674D01*
X12265301Y-12644674D02*
X12265301Y-12692293D01*
X12265301Y-12692293D02*
X12255777Y-12730388D01*
X12255777Y-12730388D02*
X12246253Y-12749436D01*
X12246253Y-12749436D02*
X12236729Y-12758960D01*
X12236729Y-12758960D02*
X12217682Y-12768484D01*
X12217682Y-12768484D02*
X12198634Y-12768484D01*
X12198634Y-12768484D02*
X12179586Y-12758960D01*
X12179586Y-12758960D02*
X12170063Y-12749436D01*
X12170063Y-12749436D02*
X12160539Y-12730388D01*
X12160539Y-12730388D02*
X12151015Y-12692293D01*
X12151015Y-12692293D02*
X12151015Y-12644674D01*
X12151015Y-12644674D02*
X12160539Y-12606579D01*
X12160539Y-12606579D02*
X12170063Y-12587531D01*
X12170063Y-12587531D02*
X12179586Y-12578008D01*
X12179586Y-12578008D02*
X12198634Y-12568484D01*
X12351015Y-12749436D02*
X12360539Y-12758960D01*
X12360539Y-12758960D02*
X12351015Y-12768484D01*
X12351015Y-12768484D02*
X12341491Y-12758960D01*
X12341491Y-12758960D02*
X12351015Y-12749436D01*
X12351015Y-12749436D02*
X12351015Y-12768484D01*
X12484348Y-12568484D02*
X12503396Y-12568484D01*
X12503396Y-12568484D02*
X12522444Y-12578008D01*
X12522444Y-12578008D02*
X12531967Y-12587531D01*
X12531967Y-12587531D02*
X12541491Y-12606579D01*
X12541491Y-12606579D02*
X12551015Y-12644674D01*
X12551015Y-12644674D02*
X12551015Y-12692293D01*
X12551015Y-12692293D02*
X12541491Y-12730388D01*
X12541491Y-12730388D02*
X12531967Y-12749436D01*
X12531967Y-12749436D02*
X12522444Y-12758960D01*
X12522444Y-12758960D02*
X12503396Y-12768484D01*
X12503396Y-12768484D02*
X12484348Y-12768484D01*
X12484348Y-12768484D02*
X12465301Y-12758960D01*
X12465301Y-12758960D02*
X12455777Y-12749436D01*
X12455777Y-12749436D02*
X12446253Y-12730388D01*
X12446253Y-12730388D02*
X12436729Y-12692293D01*
X12436729Y-12692293D02*
X12436729Y-12644674D01*
X12436729Y-12644674D02*
X12446253Y-12606579D01*
X12446253Y-12606579D02*
X12455777Y-12587531D01*
X12455777Y-12587531D02*
X12465301Y-12578008D01*
X12465301Y-12578008D02*
X12484348Y-12568484D01*
X12741491Y-12768484D02*
X12627206Y-12768484D01*
X12684348Y-12768484D02*
X12684348Y-12568484D01*
X12684348Y-12568484D02*
X12665301Y-12597055D01*
X12665301Y-12597055D02*
X12646253Y-12616103D01*
X12646253Y-12616103D02*
X12627206Y-12625627D01*
X12931967Y-12768484D02*
X12817682Y-12768484D01*
X12874825Y-12768484D02*
X12874825Y-12568484D01*
X12874825Y-12568484D02*
X12855777Y-12597055D01*
X12855777Y-12597055D02*
X12836729Y-12616103D01*
X12836729Y-12616103D02*
X12817682Y-12625627D01*
X13046253Y-12654198D02*
X13027206Y-12644674D01*
X13027206Y-12644674D02*
X13017682Y-12635150D01*
X13017682Y-12635150D02*
X13008158Y-12616103D01*
X13008158Y-12616103D02*
X13008158Y-12606579D01*
X13008158Y-12606579D02*
X13017682Y-12587531D01*
X13017682Y-12587531D02*
X13027206Y-12578008D01*
X13027206Y-12578008D02*
X13046253Y-12568484D01*
X13046253Y-12568484D02*
X13084348Y-12568484D01*
X13084348Y-12568484D02*
X13103396Y-12578008D01*
X13103396Y-12578008D02*
X13112920Y-12587531D01*
X13112920Y-12587531D02*
X13122444Y-12606579D01*
X13122444Y-12606579D02*
X13122444Y-12616103D01*
X13122444Y-12616103D02*
X13112920Y-12635150D01*
X13112920Y-12635150D02*
X13103396Y-12644674D01*
X13103396Y-12644674D02*
X13084348Y-12654198D01*
X13084348Y-12654198D02*
X13046253Y-12654198D01*
X13046253Y-12654198D02*
X13027206Y-12663722D01*
X13027206Y-12663722D02*
X13017682Y-12673246D01*
X13017682Y-12673246D02*
X13008158Y-12692293D01*
X13008158Y-12692293D02*
X13008158Y-12730388D01*
X13008158Y-12730388D02*
X13017682Y-12749436D01*
X13017682Y-12749436D02*
X13027206Y-12758960D01*
X13027206Y-12758960D02*
X13046253Y-12768484D01*
X13046253Y-12768484D02*
X13084348Y-12768484D01*
X13084348Y-12768484D02*
X13103396Y-12758960D01*
X13103396Y-12758960D02*
X13112920Y-12749436D01*
X13112920Y-12749436D02*
X13122444Y-12730388D01*
X13122444Y-12730388D02*
X13122444Y-12692293D01*
X13122444Y-12692293D02*
X13112920Y-12673246D01*
X13112920Y-12673246D02*
X13103396Y-12663722D01*
X13103396Y-12663722D02*
X13084348Y-12654198D01*
X13198634Y-12568484D02*
X13198634Y-12606579D01*
X13274825Y-12568484D02*
X13274825Y-12606579D01*
X13570063Y-12844674D02*
X13560539Y-12835150D01*
X13560539Y-12835150D02*
X13541491Y-12806579D01*
X13541491Y-12806579D02*
X13531968Y-12787531D01*
X13531968Y-12787531D02*
X13522444Y-12758960D01*
X13522444Y-12758960D02*
X13512920Y-12711341D01*
X13512920Y-12711341D02*
X13512920Y-12673246D01*
X13512920Y-12673246D02*
X13522444Y-12625627D01*
X13522444Y-12625627D02*
X13531968Y-12597055D01*
X13531968Y-12597055D02*
X13541491Y-12578008D01*
X13541491Y-12578008D02*
X13560539Y-12549436D01*
X13560539Y-12549436D02*
X13570063Y-12539912D01*
X13751015Y-12768484D02*
X13636729Y-12768484D01*
X13693872Y-12768484D02*
X13693872Y-12568484D01*
X13693872Y-12568484D02*
X13674825Y-12597055D01*
X13674825Y-12597055D02*
X13655777Y-12616103D01*
X13655777Y-12616103D02*
X13636729Y-12625627D01*
X13922444Y-12568484D02*
X13884348Y-12568484D01*
X13884348Y-12568484D02*
X13865301Y-12578008D01*
X13865301Y-12578008D02*
X13855777Y-12587531D01*
X13855777Y-12587531D02*
X13836729Y-12616103D01*
X13836729Y-12616103D02*
X13827206Y-12654198D01*
X13827206Y-12654198D02*
X13827206Y-12730388D01*
X13827206Y-12730388D02*
X13836729Y-12749436D01*
X13836729Y-12749436D02*
X13846253Y-12758960D01*
X13846253Y-12758960D02*
X13865301Y-12768484D01*
X13865301Y-12768484D02*
X13903396Y-12768484D01*
X13903396Y-12768484D02*
X13922444Y-12758960D01*
X13922444Y-12758960D02*
X13931968Y-12749436D01*
X13931968Y-12749436D02*
X13941491Y-12730388D01*
X13941491Y-12730388D02*
X13941491Y-12682769D01*
X13941491Y-12682769D02*
X13931968Y-12663722D01*
X13931968Y-12663722D02*
X13922444Y-12654198D01*
X13922444Y-12654198D02*
X13903396Y-12644674D01*
X13903396Y-12644674D02*
X13865301Y-12644674D01*
X13865301Y-12644674D02*
X13846253Y-12654198D01*
X13846253Y-12654198D02*
X13836729Y-12663722D01*
X13836729Y-12663722D02*
X13827206Y-12682769D01*
X14179587Y-12768484D02*
X14179587Y-12568484D01*
X14265301Y-12768484D02*
X14265301Y-12663722D01*
X14265301Y-12663722D02*
X14255777Y-12644674D01*
X14255777Y-12644674D02*
X14236730Y-12635150D01*
X14236730Y-12635150D02*
X14208158Y-12635150D01*
X14208158Y-12635150D02*
X14189110Y-12644674D01*
X14189110Y-12644674D02*
X14179587Y-12654198D01*
X14389110Y-12768484D02*
X14370063Y-12758960D01*
X14370063Y-12758960D02*
X14360539Y-12749436D01*
X14360539Y-12749436D02*
X14351015Y-12730388D01*
X14351015Y-12730388D02*
X14351015Y-12673246D01*
X14351015Y-12673246D02*
X14360539Y-12654198D01*
X14360539Y-12654198D02*
X14370063Y-12644674D01*
X14370063Y-12644674D02*
X14389110Y-12635150D01*
X14389110Y-12635150D02*
X14417682Y-12635150D01*
X14417682Y-12635150D02*
X14436730Y-12644674D01*
X14436730Y-12644674D02*
X14446253Y-12654198D01*
X14446253Y-12654198D02*
X14455777Y-12673246D01*
X14455777Y-12673246D02*
X14455777Y-12730388D01*
X14455777Y-12730388D02*
X14446253Y-12749436D01*
X14446253Y-12749436D02*
X14436730Y-12758960D01*
X14436730Y-12758960D02*
X14417682Y-12768484D01*
X14417682Y-12768484D02*
X14389110Y-12768484D01*
X14570063Y-12768484D02*
X14551015Y-12758960D01*
X14551015Y-12758960D02*
X14541491Y-12739912D01*
X14541491Y-12739912D02*
X14541491Y-12568484D01*
X14722444Y-12758960D02*
X14703396Y-12768484D01*
X14703396Y-12768484D02*
X14665301Y-12768484D01*
X14665301Y-12768484D02*
X14646253Y-12758960D01*
X14646253Y-12758960D02*
X14636730Y-12739912D01*
X14636730Y-12739912D02*
X14636730Y-12663722D01*
X14636730Y-12663722D02*
X14646253Y-12644674D01*
X14646253Y-12644674D02*
X14665301Y-12635150D01*
X14665301Y-12635150D02*
X14703396Y-12635150D01*
X14703396Y-12635150D02*
X14722444Y-12644674D01*
X14722444Y-12644674D02*
X14731968Y-12663722D01*
X14731968Y-12663722D02*
X14731968Y-12682769D01*
X14731968Y-12682769D02*
X14636730Y-12701817D01*
X14808158Y-12758960D02*
X14827206Y-12768484D01*
X14827206Y-12768484D02*
X14865301Y-12768484D01*
X14865301Y-12768484D02*
X14884349Y-12758960D01*
X14884349Y-12758960D02*
X14893872Y-12739912D01*
X14893872Y-12739912D02*
X14893872Y-12730388D01*
X14893872Y-12730388D02*
X14884349Y-12711341D01*
X14884349Y-12711341D02*
X14865301Y-12701817D01*
X14865301Y-12701817D02*
X14836730Y-12701817D01*
X14836730Y-12701817D02*
X14817682Y-12692293D01*
X14817682Y-12692293D02*
X14808158Y-12673246D01*
X14808158Y-12673246D02*
X14808158Y-12663722D01*
X14808158Y-12663722D02*
X14817682Y-12644674D01*
X14817682Y-12644674D02*
X14836730Y-12635150D01*
X14836730Y-12635150D02*
X14865301Y-12635150D01*
X14865301Y-12635150D02*
X14884349Y-12644674D01*
X14960539Y-12844674D02*
X14970063Y-12835150D01*
X14970063Y-12835150D02*
X14989111Y-12806579D01*
X14989111Y-12806579D02*
X14998634Y-12787531D01*
X14998634Y-12787531D02*
X15008158Y-12758960D01*
X15008158Y-12758960D02*
X15017682Y-12711341D01*
X15017682Y-12711341D02*
X15017682Y-12673246D01*
X15017682Y-12673246D02*
X15008158Y-12625627D01*
X15008158Y-12625627D02*
X14998634Y-12597055D01*
X14998634Y-12597055D02*
X14989111Y-12578008D01*
X14989111Y-12578008D02*
X14970063Y-12549436D01*
X14970063Y-12549436D02*
X14960539Y-12539912D01*
D10*
X9995000Y-12941000D02*
G75*
G02*
X9895000Y-12941000I-50000J0D01*
G01*
X9895000Y-12941000D02*
G75*
G02*
X9995000Y-12941000I50000J0D01*
G01*
D11*
X10360539Y-13032484D02*
X10246253Y-13032484D01*
X10303396Y-13032484D02*
X10303396Y-12832484D01*
X10303396Y-12832484D02*
X10284348Y-12861055D01*
X10284348Y-12861055D02*
X10265301Y-12880103D01*
X10265301Y-12880103D02*
X10246253Y-12889627D01*
X10446253Y-13013436D02*
X10455777Y-13022960D01*
X10455777Y-13022960D02*
X10446253Y-13032484D01*
X10446253Y-13032484D02*
X10436729Y-13022960D01*
X10436729Y-13022960D02*
X10446253Y-13013436D01*
X10446253Y-13013436D02*
X10446253Y-13032484D01*
X10579586Y-12832484D02*
X10598634Y-12832484D01*
X10598634Y-12832484D02*
X10617682Y-12842008D01*
X10617682Y-12842008D02*
X10627205Y-12851531D01*
X10627205Y-12851531D02*
X10636729Y-12870579D01*
X10636729Y-12870579D02*
X10646253Y-12908674D01*
X10646253Y-12908674D02*
X10646253Y-12956293D01*
X10646253Y-12956293D02*
X10636729Y-12994388D01*
X10636729Y-12994388D02*
X10627205Y-13013436D01*
X10627205Y-13013436D02*
X10617682Y-13022960D01*
X10617682Y-13022960D02*
X10598634Y-13032484D01*
X10598634Y-13032484D02*
X10579586Y-13032484D01*
X10579586Y-13032484D02*
X10560539Y-13022960D01*
X10560539Y-13022960D02*
X10551015Y-13013436D01*
X10551015Y-13013436D02*
X10541491Y-12994388D01*
X10541491Y-12994388D02*
X10531967Y-12956293D01*
X10531967Y-12956293D02*
X10531967Y-12908674D01*
X10531967Y-12908674D02*
X10541491Y-12870579D01*
X10541491Y-12870579D02*
X10551015Y-12851531D01*
X10551015Y-12851531D02*
X10560539Y-12842008D01*
X10560539Y-12842008D02*
X10579586Y-12832484D01*
X10770063Y-12832484D02*
X10789110Y-12832484D01*
X10789110Y-12832484D02*
X10808158Y-12842008D01*
X10808158Y-12842008D02*
X10817682Y-12851531D01*
X10817682Y-12851531D02*
X10827205Y-12870579D01*
X10827205Y-12870579D02*
X10836729Y-12908674D01*
X10836729Y-12908674D02*
X10836729Y-12956293D01*
X10836729Y-12956293D02*
X10827205Y-12994388D01*
X10827205Y-12994388D02*
X10817682Y-13013436D01*
X10817682Y-13013436D02*
X10808158Y-13022960D01*
X10808158Y-13022960D02*
X10789110Y-13032484D01*
X10789110Y-13032484D02*
X10770063Y-13032484D01*
X10770063Y-13032484D02*
X10751015Y-13022960D01*
X10751015Y-13022960D02*
X10741491Y-13013436D01*
X10741491Y-13013436D02*
X10731967Y-12994388D01*
X10731967Y-12994388D02*
X10722444Y-12956293D01*
X10722444Y-12956293D02*
X10722444Y-12908674D01*
X10722444Y-12908674D02*
X10731967Y-12870579D01*
X10731967Y-12870579D02*
X10741491Y-12851531D01*
X10741491Y-12851531D02*
X10751015Y-12842008D01*
X10751015Y-12842008D02*
X10770063Y-12832484D01*
X10960539Y-12832484D02*
X10979586Y-12832484D01*
X10979586Y-12832484D02*
X10998634Y-12842008D01*
X10998634Y-12842008D02*
X11008158Y-12851531D01*
X11008158Y-12851531D02*
X11017682Y-12870579D01*
X11017682Y-12870579D02*
X11027205Y-12908674D01*
X11027205Y-12908674D02*
X11027205Y-12956293D01*
X11027205Y-12956293D02*
X11017682Y-12994388D01*
X11017682Y-12994388D02*
X11008158Y-13013436D01*
X11008158Y-13013436D02*
X10998634Y-13022960D01*
X10998634Y-13022960D02*
X10979586Y-13032484D01*
X10979586Y-13032484D02*
X10960539Y-13032484D01*
X10960539Y-13032484D02*
X10941491Y-13022960D01*
X10941491Y-13022960D02*
X10931967Y-13013436D01*
X10931967Y-13013436D02*
X10922444Y-12994388D01*
X10922444Y-12994388D02*
X10912920Y-12956293D01*
X10912920Y-12956293D02*
X10912920Y-12908674D01*
X10912920Y-12908674D02*
X10922444Y-12870579D01*
X10922444Y-12870579D02*
X10931967Y-12851531D01*
X10931967Y-12851531D02*
X10941491Y-12842008D01*
X10941491Y-12842008D02*
X10960539Y-12832484D01*
X11112920Y-13032484D02*
X11112920Y-12899150D01*
X11112920Y-12918198D02*
X11122444Y-12908674D01*
X11122444Y-12908674D02*
X11141491Y-12899150D01*
X11141491Y-12899150D02*
X11170063Y-12899150D01*
X11170063Y-12899150D02*
X11189110Y-12908674D01*
X11189110Y-12908674D02*
X11198634Y-12927722D01*
X11198634Y-12927722D02*
X11198634Y-13032484D01*
X11198634Y-12927722D02*
X11208158Y-12908674D01*
X11208158Y-12908674D02*
X11227205Y-12899150D01*
X11227205Y-12899150D02*
X11255777Y-12899150D01*
X11255777Y-12899150D02*
X11274824Y-12908674D01*
X11274824Y-12908674D02*
X11284348Y-12927722D01*
X11284348Y-12927722D02*
X11284348Y-13032484D01*
X11379586Y-13032484D02*
X11379586Y-12899150D01*
X11379586Y-12918198D02*
X11389110Y-12908674D01*
X11389110Y-12908674D02*
X11408158Y-12899150D01*
X11408158Y-12899150D02*
X11436729Y-12899150D01*
X11436729Y-12899150D02*
X11455777Y-12908674D01*
X11455777Y-12908674D02*
X11465301Y-12927722D01*
X11465301Y-12927722D02*
X11465301Y-13032484D01*
X11465301Y-12927722D02*
X11474824Y-12908674D01*
X11474824Y-12908674D02*
X11493872Y-12899150D01*
X11493872Y-12899150D02*
X11522443Y-12899150D01*
X11522443Y-12899150D02*
X11541491Y-12908674D01*
X11541491Y-12908674D02*
X11551015Y-12927722D01*
X11551015Y-12927722D02*
X11551015Y-13032484D01*
X11941491Y-12822960D02*
X11770063Y-13080103D01*
X12198634Y-12832484D02*
X12217682Y-12832484D01*
X12217682Y-12832484D02*
X12236729Y-12842008D01*
X12236729Y-12842008D02*
X12246253Y-12851531D01*
X12246253Y-12851531D02*
X12255777Y-12870579D01*
X12255777Y-12870579D02*
X12265301Y-12908674D01*
X12265301Y-12908674D02*
X12265301Y-12956293D01*
X12265301Y-12956293D02*
X12255777Y-12994388D01*
X12255777Y-12994388D02*
X12246253Y-13013436D01*
X12246253Y-13013436D02*
X12236729Y-13022960D01*
X12236729Y-13022960D02*
X12217682Y-13032484D01*
X12217682Y-13032484D02*
X12198634Y-13032484D01*
X12198634Y-13032484D02*
X12179586Y-13022960D01*
X12179586Y-13022960D02*
X12170063Y-13013436D01*
X12170063Y-13013436D02*
X12160539Y-12994388D01*
X12160539Y-12994388D02*
X12151015Y-12956293D01*
X12151015Y-12956293D02*
X12151015Y-12908674D01*
X12151015Y-12908674D02*
X12160539Y-12870579D01*
X12160539Y-12870579D02*
X12170063Y-12851531D01*
X12170063Y-12851531D02*
X12179586Y-12842008D01*
X12179586Y-12842008D02*
X12198634Y-12832484D01*
X12351015Y-13013436D02*
X12360539Y-13022960D01*
X12360539Y-13022960D02*
X12351015Y-13032484D01*
X12351015Y-13032484D02*
X12341491Y-13022960D01*
X12341491Y-13022960D02*
X12351015Y-13013436D01*
X12351015Y-13013436D02*
X12351015Y-13032484D01*
X12484348Y-12832484D02*
X12503396Y-12832484D01*
X12503396Y-12832484D02*
X12522444Y-12842008D01*
X12522444Y-12842008D02*
X12531967Y-12851531D01*
X12531967Y-12851531D02*
X12541491Y-12870579D01*
X12541491Y-12870579D02*
X12551015Y-12908674D01*
X12551015Y-12908674D02*
X12551015Y-12956293D01*
X12551015Y-12956293D02*
X12541491Y-12994388D01*
X12541491Y-12994388D02*
X12531967Y-13013436D01*
X12531967Y-13013436D02*
X12522444Y-13022960D01*
X12522444Y-13022960D02*
X12503396Y-13032484D01*
X12503396Y-13032484D02*
X12484348Y-13032484D01*
X12484348Y-13032484D02*
X12465301Y-13022960D01*
X12465301Y-13022960D02*
X12455777Y-13013436D01*
X12455777Y-13013436D02*
X12446253Y-12994388D01*
X12446253Y-12994388D02*
X12436729Y-12956293D01*
X12436729Y-12956293D02*
X12436729Y-12908674D01*
X12436729Y-12908674D02*
X12446253Y-12870579D01*
X12446253Y-12870579D02*
X12455777Y-12851531D01*
X12455777Y-12851531D02*
X12465301Y-12842008D01*
X12465301Y-12842008D02*
X12484348Y-12832484D01*
X12617682Y-12832484D02*
X12741491Y-12832484D01*
X12741491Y-12832484D02*
X12674825Y-12908674D01*
X12674825Y-12908674D02*
X12703396Y-12908674D01*
X12703396Y-12908674D02*
X12722444Y-12918198D01*
X12722444Y-12918198D02*
X12731967Y-12927722D01*
X12731967Y-12927722D02*
X12741491Y-12946769D01*
X12741491Y-12946769D02*
X12741491Y-12994388D01*
X12741491Y-12994388D02*
X12731967Y-13013436D01*
X12731967Y-13013436D02*
X12722444Y-13022960D01*
X12722444Y-13022960D02*
X12703396Y-13032484D01*
X12703396Y-13032484D02*
X12646253Y-13032484D01*
X12646253Y-13032484D02*
X12627206Y-13022960D01*
X12627206Y-13022960D02*
X12617682Y-13013436D01*
X12836729Y-13032484D02*
X12874825Y-13032484D01*
X12874825Y-13032484D02*
X12893872Y-13022960D01*
X12893872Y-13022960D02*
X12903396Y-13013436D01*
X12903396Y-13013436D02*
X12922444Y-12984865D01*
X12922444Y-12984865D02*
X12931967Y-12946769D01*
X12931967Y-12946769D02*
X12931967Y-12870579D01*
X12931967Y-12870579D02*
X12922444Y-12851531D01*
X12922444Y-12851531D02*
X12912920Y-12842008D01*
X12912920Y-12842008D02*
X12893872Y-12832484D01*
X12893872Y-12832484D02*
X12855777Y-12832484D01*
X12855777Y-12832484D02*
X12836729Y-12842008D01*
X12836729Y-12842008D02*
X12827206Y-12851531D01*
X12827206Y-12851531D02*
X12817682Y-12870579D01*
X12817682Y-12870579D02*
X12817682Y-12918198D01*
X12817682Y-12918198D02*
X12827206Y-12937246D01*
X12827206Y-12937246D02*
X12836729Y-12946769D01*
X12836729Y-12946769D02*
X12855777Y-12956293D01*
X12855777Y-12956293D02*
X12893872Y-12956293D01*
X12893872Y-12956293D02*
X12912920Y-12946769D01*
X12912920Y-12946769D02*
X12922444Y-12937246D01*
X12922444Y-12937246D02*
X12931967Y-12918198D01*
X13103396Y-12899150D02*
X13103396Y-13032484D01*
X13055777Y-12822960D02*
X13008158Y-12965817D01*
X13008158Y-12965817D02*
X13131967Y-12965817D01*
X13198634Y-12832484D02*
X13198634Y-12870579D01*
X13274825Y-12832484D02*
X13274825Y-12870579D01*
X13570063Y-13108674D02*
X13560539Y-13099150D01*
X13560539Y-13099150D02*
X13541491Y-13070579D01*
X13541491Y-13070579D02*
X13531968Y-13051531D01*
X13531968Y-13051531D02*
X13522444Y-13022960D01*
X13522444Y-13022960D02*
X13512920Y-12975341D01*
X13512920Y-12975341D02*
X13512920Y-12937246D01*
X13512920Y-12937246D02*
X13522444Y-12889627D01*
X13522444Y-12889627D02*
X13531968Y-12861055D01*
X13531968Y-12861055D02*
X13541491Y-12842008D01*
X13541491Y-12842008D02*
X13560539Y-12813436D01*
X13560539Y-12813436D02*
X13570063Y-12803912D01*
X13731968Y-12899150D02*
X13731968Y-13032484D01*
X13684348Y-12822960D02*
X13636729Y-12965817D01*
X13636729Y-12965817D02*
X13760539Y-12965817D01*
X13989110Y-13032484D02*
X13989110Y-12832484D01*
X14074825Y-13032484D02*
X14074825Y-12927722D01*
X14074825Y-12927722D02*
X14065301Y-12908674D01*
X14065301Y-12908674D02*
X14046253Y-12899150D01*
X14046253Y-12899150D02*
X14017682Y-12899150D01*
X14017682Y-12899150D02*
X13998634Y-12908674D01*
X13998634Y-12908674D02*
X13989110Y-12918198D01*
X14198634Y-13032484D02*
X14179587Y-13022960D01*
X14179587Y-13022960D02*
X14170063Y-13013436D01*
X14170063Y-13013436D02*
X14160539Y-12994388D01*
X14160539Y-12994388D02*
X14160539Y-12937246D01*
X14160539Y-12937246D02*
X14170063Y-12918198D01*
X14170063Y-12918198D02*
X14179587Y-12908674D01*
X14179587Y-12908674D02*
X14198634Y-12899150D01*
X14198634Y-12899150D02*
X14227206Y-12899150D01*
X14227206Y-12899150D02*
X14246253Y-12908674D01*
X14246253Y-12908674D02*
X14255777Y-12918198D01*
X14255777Y-12918198D02*
X14265301Y-12937246D01*
X14265301Y-12937246D02*
X14265301Y-12994388D01*
X14265301Y-12994388D02*
X14255777Y-13013436D01*
X14255777Y-13013436D02*
X14246253Y-13022960D01*
X14246253Y-13022960D02*
X14227206Y-13032484D01*
X14227206Y-13032484D02*
X14198634Y-13032484D01*
X14379587Y-13032484D02*
X14360539Y-13022960D01*
X14360539Y-13022960D02*
X14351015Y-13003912D01*
X14351015Y-13003912D02*
X14351015Y-12832484D01*
X14531968Y-13022960D02*
X14512920Y-13032484D01*
X14512920Y-13032484D02*
X14474825Y-13032484D01*
X14474825Y-13032484D02*
X14455777Y-13022960D01*
X14455777Y-13022960D02*
X14446253Y-13003912D01*
X14446253Y-13003912D02*
X14446253Y-12927722D01*
X14446253Y-12927722D02*
X14455777Y-12908674D01*
X14455777Y-12908674D02*
X14474825Y-12899150D01*
X14474825Y-12899150D02*
X14512920Y-12899150D01*
X14512920Y-12899150D02*
X14531968Y-12908674D01*
X14531968Y-12908674D02*
X14541491Y-12927722D01*
X14541491Y-12927722D02*
X14541491Y-12946769D01*
X14541491Y-12946769D02*
X14446253Y-12965817D01*
X14617682Y-13022960D02*
X14636730Y-13032484D01*
X14636730Y-13032484D02*
X14674825Y-13032484D01*
X14674825Y-13032484D02*
X14693872Y-13022960D01*
X14693872Y-13022960D02*
X14703396Y-13003912D01*
X14703396Y-13003912D02*
X14703396Y-12994388D01*
X14703396Y-12994388D02*
X14693872Y-12975341D01*
X14693872Y-12975341D02*
X14674825Y-12965817D01*
X14674825Y-12965817D02*
X14646253Y-12965817D01*
X14646253Y-12965817D02*
X14627206Y-12956293D01*
X14627206Y-12956293D02*
X14617682Y-12937246D01*
X14617682Y-12937246D02*
X14617682Y-12927722D01*
X14617682Y-12927722D02*
X14627206Y-12908674D01*
X14627206Y-12908674D02*
X14646253Y-12899150D01*
X14646253Y-12899150D02*
X14674825Y-12899150D01*
X14674825Y-12899150D02*
X14693872Y-12908674D01*
X14770063Y-13108674D02*
X14779587Y-13099150D01*
X14779587Y-13099150D02*
X14798634Y-13070579D01*
X14798634Y-13070579D02*
X14808158Y-13051531D01*
X14808158Y-13051531D02*
X14817682Y-13022960D01*
X14817682Y-13022960D02*
X14827206Y-12975341D01*
X14827206Y-12975341D02*
X14827206Y-12937246D01*
X14827206Y-12937246D02*
X14817682Y-12889627D01*
X14817682Y-12889627D02*
X14808158Y-12861055D01*
X14808158Y-12861055D02*
X14798634Y-12842008D01*
X14798634Y-12842008D02*
X14779587Y-12813436D01*
X14779587Y-12813436D02*
X14770063Y-12803912D01*
X9895000Y-13105000D02*
X9895000Y-13305000D01*
X9795000Y-13205000D02*
X9995000Y-13205000D01*
X10246253Y-13115531D02*
X10255777Y-13106008D01*
X10255777Y-13106008D02*
X10274824Y-13096484D01*
X10274824Y-13096484D02*
X10322444Y-13096484D01*
X10322444Y-13096484D02*
X10341491Y-13106008D01*
X10341491Y-13106008D02*
X10351015Y-13115531D01*
X10351015Y-13115531D02*
X10360539Y-13134579D01*
X10360539Y-13134579D02*
X10360539Y-13153627D01*
X10360539Y-13153627D02*
X10351015Y-13182198D01*
X10351015Y-13182198D02*
X10236729Y-13296484D01*
X10236729Y-13296484D02*
X10360539Y-13296484D01*
X10446253Y-13277436D02*
X10455777Y-13286960D01*
X10455777Y-13286960D02*
X10446253Y-13296484D01*
X10446253Y-13296484D02*
X10436729Y-13286960D01*
X10436729Y-13286960D02*
X10446253Y-13277436D01*
X10446253Y-13277436D02*
X10446253Y-13296484D01*
X10522444Y-13096484D02*
X10655777Y-13096484D01*
X10655777Y-13096484D02*
X10570063Y-13296484D01*
X10770063Y-13096484D02*
X10789110Y-13096484D01*
X10789110Y-13096484D02*
X10808158Y-13106008D01*
X10808158Y-13106008D02*
X10817682Y-13115531D01*
X10817682Y-13115531D02*
X10827205Y-13134579D01*
X10827205Y-13134579D02*
X10836729Y-13172674D01*
X10836729Y-13172674D02*
X10836729Y-13220293D01*
X10836729Y-13220293D02*
X10827205Y-13258388D01*
X10827205Y-13258388D02*
X10817682Y-13277436D01*
X10817682Y-13277436D02*
X10808158Y-13286960D01*
X10808158Y-13286960D02*
X10789110Y-13296484D01*
X10789110Y-13296484D02*
X10770063Y-13296484D01*
X10770063Y-13296484D02*
X10751015Y-13286960D01*
X10751015Y-13286960D02*
X10741491Y-13277436D01*
X10741491Y-13277436D02*
X10731967Y-13258388D01*
X10731967Y-13258388D02*
X10722444Y-13220293D01*
X10722444Y-13220293D02*
X10722444Y-13172674D01*
X10722444Y-13172674D02*
X10731967Y-13134579D01*
X10731967Y-13134579D02*
X10741491Y-13115531D01*
X10741491Y-13115531D02*
X10751015Y-13106008D01*
X10751015Y-13106008D02*
X10770063Y-13096484D01*
X10960539Y-13096484D02*
X10979586Y-13096484D01*
X10979586Y-13096484D02*
X10998634Y-13106008D01*
X10998634Y-13106008D02*
X11008158Y-13115531D01*
X11008158Y-13115531D02*
X11017682Y-13134579D01*
X11017682Y-13134579D02*
X11027205Y-13172674D01*
X11027205Y-13172674D02*
X11027205Y-13220293D01*
X11027205Y-13220293D02*
X11017682Y-13258388D01*
X11017682Y-13258388D02*
X11008158Y-13277436D01*
X11008158Y-13277436D02*
X10998634Y-13286960D01*
X10998634Y-13286960D02*
X10979586Y-13296484D01*
X10979586Y-13296484D02*
X10960539Y-13296484D01*
X10960539Y-13296484D02*
X10941491Y-13286960D01*
X10941491Y-13286960D02*
X10931967Y-13277436D01*
X10931967Y-13277436D02*
X10922444Y-13258388D01*
X10922444Y-13258388D02*
X10912920Y-13220293D01*
X10912920Y-13220293D02*
X10912920Y-13172674D01*
X10912920Y-13172674D02*
X10922444Y-13134579D01*
X10922444Y-13134579D02*
X10931967Y-13115531D01*
X10931967Y-13115531D02*
X10941491Y-13106008D01*
X10941491Y-13106008D02*
X10960539Y-13096484D01*
X11112920Y-13296484D02*
X11112920Y-13163150D01*
X11112920Y-13182198D02*
X11122444Y-13172674D01*
X11122444Y-13172674D02*
X11141491Y-13163150D01*
X11141491Y-13163150D02*
X11170063Y-13163150D01*
X11170063Y-13163150D02*
X11189110Y-13172674D01*
X11189110Y-13172674D02*
X11198634Y-13191722D01*
X11198634Y-13191722D02*
X11198634Y-13296484D01*
X11198634Y-13191722D02*
X11208158Y-13172674D01*
X11208158Y-13172674D02*
X11227205Y-13163150D01*
X11227205Y-13163150D02*
X11255777Y-13163150D01*
X11255777Y-13163150D02*
X11274824Y-13172674D01*
X11274824Y-13172674D02*
X11284348Y-13191722D01*
X11284348Y-13191722D02*
X11284348Y-13296484D01*
X11379586Y-13296484D02*
X11379586Y-13163150D01*
X11379586Y-13182198D02*
X11389110Y-13172674D01*
X11389110Y-13172674D02*
X11408158Y-13163150D01*
X11408158Y-13163150D02*
X11436729Y-13163150D01*
X11436729Y-13163150D02*
X11455777Y-13172674D01*
X11455777Y-13172674D02*
X11465301Y-13191722D01*
X11465301Y-13191722D02*
X11465301Y-13296484D01*
X11465301Y-13191722D02*
X11474824Y-13172674D01*
X11474824Y-13172674D02*
X11493872Y-13163150D01*
X11493872Y-13163150D02*
X11522443Y-13163150D01*
X11522443Y-13163150D02*
X11541491Y-13172674D01*
X11541491Y-13172674D02*
X11551015Y-13191722D01*
X11551015Y-13191722D02*
X11551015Y-13296484D01*
X11941491Y-13086960D02*
X11770063Y-13344103D01*
X12198634Y-13096484D02*
X12217682Y-13096484D01*
X12217682Y-13096484D02*
X12236729Y-13106008D01*
X12236729Y-13106008D02*
X12246253Y-13115531D01*
X12246253Y-13115531D02*
X12255777Y-13134579D01*
X12255777Y-13134579D02*
X12265301Y-13172674D01*
X12265301Y-13172674D02*
X12265301Y-13220293D01*
X12265301Y-13220293D02*
X12255777Y-13258388D01*
X12255777Y-13258388D02*
X12246253Y-13277436D01*
X12246253Y-13277436D02*
X12236729Y-13286960D01*
X12236729Y-13286960D02*
X12217682Y-13296484D01*
X12217682Y-13296484D02*
X12198634Y-13296484D01*
X12198634Y-13296484D02*
X12179586Y-13286960D01*
X12179586Y-13286960D02*
X12170063Y-13277436D01*
X12170063Y-13277436D02*
X12160539Y-13258388D01*
X12160539Y-13258388D02*
X12151015Y-13220293D01*
X12151015Y-13220293D02*
X12151015Y-13172674D01*
X12151015Y-13172674D02*
X12160539Y-13134579D01*
X12160539Y-13134579D02*
X12170063Y-13115531D01*
X12170063Y-13115531D02*
X12179586Y-13106008D01*
X12179586Y-13106008D02*
X12198634Y-13096484D01*
X12351015Y-13277436D02*
X12360539Y-13286960D01*
X12360539Y-13286960D02*
X12351015Y-13296484D01*
X12351015Y-13296484D02*
X12341491Y-13286960D01*
X12341491Y-13286960D02*
X12351015Y-13277436D01*
X12351015Y-13277436D02*
X12351015Y-13296484D01*
X12551015Y-13296484D02*
X12436729Y-13296484D01*
X12493872Y-13296484D02*
X12493872Y-13096484D01*
X12493872Y-13096484D02*
X12474825Y-13125055D01*
X12474825Y-13125055D02*
X12455777Y-13144103D01*
X12455777Y-13144103D02*
X12436729Y-13153627D01*
X12674825Y-13096484D02*
X12693872Y-13096484D01*
X12693872Y-13096484D02*
X12712920Y-13106008D01*
X12712920Y-13106008D02*
X12722444Y-13115531D01*
X12722444Y-13115531D02*
X12731967Y-13134579D01*
X12731967Y-13134579D02*
X12741491Y-13172674D01*
X12741491Y-13172674D02*
X12741491Y-13220293D01*
X12741491Y-13220293D02*
X12731967Y-13258388D01*
X12731967Y-13258388D02*
X12722444Y-13277436D01*
X12722444Y-13277436D02*
X12712920Y-13286960D01*
X12712920Y-13286960D02*
X12693872Y-13296484D01*
X12693872Y-13296484D02*
X12674825Y-13296484D01*
X12674825Y-13296484D02*
X12655777Y-13286960D01*
X12655777Y-13286960D02*
X12646253Y-13277436D01*
X12646253Y-13277436D02*
X12636729Y-13258388D01*
X12636729Y-13258388D02*
X12627206Y-13220293D01*
X12627206Y-13220293D02*
X12627206Y-13172674D01*
X12627206Y-13172674D02*
X12636729Y-13134579D01*
X12636729Y-13134579D02*
X12646253Y-13115531D01*
X12646253Y-13115531D02*
X12655777Y-13106008D01*
X12655777Y-13106008D02*
X12674825Y-13096484D01*
X12912920Y-13096484D02*
X12874825Y-13096484D01*
X12874825Y-13096484D02*
X12855777Y-13106008D01*
X12855777Y-13106008D02*
X12846253Y-13115531D01*
X12846253Y-13115531D02*
X12827206Y-13144103D01*
X12827206Y-13144103D02*
X12817682Y-13182198D01*
X12817682Y-13182198D02*
X12817682Y-13258388D01*
X12817682Y-13258388D02*
X12827206Y-13277436D01*
X12827206Y-13277436D02*
X12836729Y-13286960D01*
X12836729Y-13286960D02*
X12855777Y-13296484D01*
X12855777Y-13296484D02*
X12893872Y-13296484D01*
X12893872Y-13296484D02*
X12912920Y-13286960D01*
X12912920Y-13286960D02*
X12922444Y-13277436D01*
X12922444Y-13277436D02*
X12931967Y-13258388D01*
X12931967Y-13258388D02*
X12931967Y-13210769D01*
X12931967Y-13210769D02*
X12922444Y-13191722D01*
X12922444Y-13191722D02*
X12912920Y-13182198D01*
X12912920Y-13182198D02*
X12893872Y-13172674D01*
X12893872Y-13172674D02*
X12855777Y-13172674D01*
X12855777Y-13172674D02*
X12836729Y-13182198D01*
X12836729Y-13182198D02*
X12827206Y-13191722D01*
X12827206Y-13191722D02*
X12817682Y-13210769D01*
X12998634Y-13096484D02*
X13122444Y-13096484D01*
X13122444Y-13096484D02*
X13055777Y-13172674D01*
X13055777Y-13172674D02*
X13084348Y-13172674D01*
X13084348Y-13172674D02*
X13103396Y-13182198D01*
X13103396Y-13182198D02*
X13112920Y-13191722D01*
X13112920Y-13191722D02*
X13122444Y-13210769D01*
X13122444Y-13210769D02*
X13122444Y-13258388D01*
X13122444Y-13258388D02*
X13112920Y-13277436D01*
X13112920Y-13277436D02*
X13103396Y-13286960D01*
X13103396Y-13286960D02*
X13084348Y-13296484D01*
X13084348Y-13296484D02*
X13027206Y-13296484D01*
X13027206Y-13296484D02*
X13008158Y-13286960D01*
X13008158Y-13286960D02*
X12998634Y-13277436D01*
X13198634Y-13096484D02*
X13198634Y-13134579D01*
X13274825Y-13096484D02*
X13274825Y-13134579D01*
X13570063Y-13372674D02*
X13560539Y-13363150D01*
X13560539Y-13363150D02*
X13541491Y-13334579D01*
X13541491Y-13334579D02*
X13531968Y-13315531D01*
X13531968Y-13315531D02*
X13522444Y-13286960D01*
X13522444Y-13286960D02*
X13512920Y-13239341D01*
X13512920Y-13239341D02*
X13512920Y-13201246D01*
X13512920Y-13201246D02*
X13522444Y-13153627D01*
X13522444Y-13153627D02*
X13531968Y-13125055D01*
X13531968Y-13125055D02*
X13541491Y-13106008D01*
X13541491Y-13106008D02*
X13560539Y-13077436D01*
X13560539Y-13077436D02*
X13570063Y-13067912D01*
X13636729Y-13115531D02*
X13646253Y-13106008D01*
X13646253Y-13106008D02*
X13665301Y-13096484D01*
X13665301Y-13096484D02*
X13712920Y-13096484D01*
X13712920Y-13096484D02*
X13731968Y-13106008D01*
X13731968Y-13106008D02*
X13741491Y-13115531D01*
X13741491Y-13115531D02*
X13751015Y-13134579D01*
X13751015Y-13134579D02*
X13751015Y-13153627D01*
X13751015Y-13153627D02*
X13741491Y-13182198D01*
X13741491Y-13182198D02*
X13627206Y-13296484D01*
X13627206Y-13296484D02*
X13751015Y-13296484D01*
X13989110Y-13296484D02*
X13989110Y-13096484D01*
X14074825Y-13296484D02*
X14074825Y-13191722D01*
X14074825Y-13191722D02*
X14065301Y-13172674D01*
X14065301Y-13172674D02*
X14046253Y-13163150D01*
X14046253Y-13163150D02*
X14017682Y-13163150D01*
X14017682Y-13163150D02*
X13998634Y-13172674D01*
X13998634Y-13172674D02*
X13989110Y-13182198D01*
X14198634Y-13296484D02*
X14179587Y-13286960D01*
X14179587Y-13286960D02*
X14170063Y-13277436D01*
X14170063Y-13277436D02*
X14160539Y-13258388D01*
X14160539Y-13258388D02*
X14160539Y-13201246D01*
X14160539Y-13201246D02*
X14170063Y-13182198D01*
X14170063Y-13182198D02*
X14179587Y-13172674D01*
X14179587Y-13172674D02*
X14198634Y-13163150D01*
X14198634Y-13163150D02*
X14227206Y-13163150D01*
X14227206Y-13163150D02*
X14246253Y-13172674D01*
X14246253Y-13172674D02*
X14255777Y-13182198D01*
X14255777Y-13182198D02*
X14265301Y-13201246D01*
X14265301Y-13201246D02*
X14265301Y-13258388D01*
X14265301Y-13258388D02*
X14255777Y-13277436D01*
X14255777Y-13277436D02*
X14246253Y-13286960D01*
X14246253Y-13286960D02*
X14227206Y-13296484D01*
X14227206Y-13296484D02*
X14198634Y-13296484D01*
X14379587Y-13296484D02*
X14360539Y-13286960D01*
X14360539Y-13286960D02*
X14351015Y-13267912D01*
X14351015Y-13267912D02*
X14351015Y-13096484D01*
X14531968Y-13286960D02*
X14512920Y-13296484D01*
X14512920Y-13296484D02*
X14474825Y-13296484D01*
X14474825Y-13296484D02*
X14455777Y-13286960D01*
X14455777Y-13286960D02*
X14446253Y-13267912D01*
X14446253Y-13267912D02*
X14446253Y-13191722D01*
X14446253Y-13191722D02*
X14455777Y-13172674D01*
X14455777Y-13172674D02*
X14474825Y-13163150D01*
X14474825Y-13163150D02*
X14512920Y-13163150D01*
X14512920Y-13163150D02*
X14531968Y-13172674D01*
X14531968Y-13172674D02*
X14541491Y-13191722D01*
X14541491Y-13191722D02*
X14541491Y-13210769D01*
X14541491Y-13210769D02*
X14446253Y-13229817D01*
X14617682Y-13286960D02*
X14636730Y-13296484D01*
X14636730Y-13296484D02*
X14674825Y-13296484D01*
X14674825Y-13296484D02*
X14693872Y-13286960D01*
X14693872Y-13286960D02*
X14703396Y-13267912D01*
X14703396Y-13267912D02*
X14703396Y-13258388D01*
X14703396Y-13258388D02*
X14693872Y-13239341D01*
X14693872Y-13239341D02*
X14674825Y-13229817D01*
X14674825Y-13229817D02*
X14646253Y-13229817D01*
X14646253Y-13229817D02*
X14627206Y-13220293D01*
X14627206Y-13220293D02*
X14617682Y-13201246D01*
X14617682Y-13201246D02*
X14617682Y-13191722D01*
X14617682Y-13191722D02*
X14627206Y-13172674D01*
X14627206Y-13172674D02*
X14646253Y-13163150D01*
X14646253Y-13163150D02*
X14674825Y-13163150D01*
X14674825Y-13163150D02*
X14693872Y-13172674D01*
X14770063Y-13372674D02*
X14779587Y-13363150D01*
X14779587Y-13363150D02*
X14798634Y-13334579D01*
X14798634Y-13334579D02*
X14808158Y-13315531D01*
X14808158Y-13315531D02*
X14817682Y-13286960D01*
X14817682Y-13286960D02*
X14827206Y-13239341D01*
X14827206Y-13239341D02*
X14827206Y-13201246D01*
X14827206Y-13201246D02*
X14817682Y-13153627D01*
X14817682Y-13153627D02*
X14808158Y-13125055D01*
X14808158Y-13125055D02*
X14798634Y-13106008D01*
X14798634Y-13106008D02*
X14779587Y-13077436D01*
X14779587Y-13077436D02*
X14770063Y-13067912D01*
X15131968Y-13372674D02*
X15122444Y-13363150D01*
X15122444Y-13363150D02*
X15103396Y-13334579D01*
X15103396Y-13334579D02*
X15093872Y-13315531D01*
X15093872Y-13315531D02*
X15084349Y-13286960D01*
X15084349Y-13286960D02*
X15074825Y-13239341D01*
X15074825Y-13239341D02*
X15074825Y-13201246D01*
X15074825Y-13201246D02*
X15084349Y-13153627D01*
X15084349Y-13153627D02*
X15093872Y-13125055D01*
X15093872Y-13125055D02*
X15103396Y-13106008D01*
X15103396Y-13106008D02*
X15122444Y-13077436D01*
X15122444Y-13077436D02*
X15131968Y-13067912D01*
X15208158Y-13163150D02*
X15208158Y-13296484D01*
X15208158Y-13182198D02*
X15217682Y-13172674D01*
X15217682Y-13172674D02*
X15236730Y-13163150D01*
X15236730Y-13163150D02*
X15265301Y-13163150D01*
X15265301Y-13163150D02*
X15284349Y-13172674D01*
X15284349Y-13172674D02*
X15293872Y-13191722D01*
X15293872Y-13191722D02*
X15293872Y-13296484D01*
X15417682Y-13296484D02*
X15398634Y-13286960D01*
X15398634Y-13286960D02*
X15389111Y-13277436D01*
X15389111Y-13277436D02*
X15379587Y-13258388D01*
X15379587Y-13258388D02*
X15379587Y-13201246D01*
X15379587Y-13201246D02*
X15389111Y-13182198D01*
X15389111Y-13182198D02*
X15398634Y-13172674D01*
X15398634Y-13172674D02*
X15417682Y-13163150D01*
X15417682Y-13163150D02*
X15446253Y-13163150D01*
X15446253Y-13163150D02*
X15465301Y-13172674D01*
X15465301Y-13172674D02*
X15474825Y-13182198D01*
X15474825Y-13182198D02*
X15484349Y-13201246D01*
X15484349Y-13201246D02*
X15484349Y-13258388D01*
X15484349Y-13258388D02*
X15474825Y-13277436D01*
X15474825Y-13277436D02*
X15465301Y-13286960D01*
X15465301Y-13286960D02*
X15446253Y-13296484D01*
X15446253Y-13296484D02*
X15417682Y-13296484D01*
X15541492Y-13163150D02*
X15617682Y-13163150D01*
X15570063Y-13096484D02*
X15570063Y-13267912D01*
X15570063Y-13267912D02*
X15579587Y-13286960D01*
X15579587Y-13286960D02*
X15598634Y-13296484D01*
X15598634Y-13296484D02*
X15617682Y-13296484D01*
X15836730Y-13163150D02*
X15836730Y-13363150D01*
X15836730Y-13172674D02*
X15855777Y-13163150D01*
X15855777Y-13163150D02*
X15893873Y-13163150D01*
X15893873Y-13163150D02*
X15912920Y-13172674D01*
X15912920Y-13172674D02*
X15922444Y-13182198D01*
X15922444Y-13182198D02*
X15931968Y-13201246D01*
X15931968Y-13201246D02*
X15931968Y-13258388D01*
X15931968Y-13258388D02*
X15922444Y-13277436D01*
X15922444Y-13277436D02*
X15912920Y-13286960D01*
X15912920Y-13286960D02*
X15893873Y-13296484D01*
X15893873Y-13296484D02*
X15855777Y-13296484D01*
X15855777Y-13296484D02*
X15836730Y-13286960D01*
X16046253Y-13296484D02*
X16027206Y-13286960D01*
X16027206Y-13286960D02*
X16017682Y-13267912D01*
X16017682Y-13267912D02*
X16017682Y-13096484D01*
X16208158Y-13296484D02*
X16208158Y-13191722D01*
X16208158Y-13191722D02*
X16198634Y-13172674D01*
X16198634Y-13172674D02*
X16179587Y-13163150D01*
X16179587Y-13163150D02*
X16141492Y-13163150D01*
X16141492Y-13163150D02*
X16122444Y-13172674D01*
X16208158Y-13286960D02*
X16189111Y-13296484D01*
X16189111Y-13296484D02*
X16141492Y-13296484D01*
X16141492Y-13296484D02*
X16122444Y-13286960D01*
X16122444Y-13286960D02*
X16112920Y-13267912D01*
X16112920Y-13267912D02*
X16112920Y-13248865D01*
X16112920Y-13248865D02*
X16122444Y-13229817D01*
X16122444Y-13229817D02*
X16141492Y-13220293D01*
X16141492Y-13220293D02*
X16189111Y-13220293D01*
X16189111Y-13220293D02*
X16208158Y-13210769D01*
X16274825Y-13163150D02*
X16351015Y-13163150D01*
X16303396Y-13096484D02*
X16303396Y-13267912D01*
X16303396Y-13267912D02*
X16312920Y-13286960D01*
X16312920Y-13286960D02*
X16331968Y-13296484D01*
X16331968Y-13296484D02*
X16351015Y-13296484D01*
X16493873Y-13286960D02*
X16474825Y-13296484D01*
X16474825Y-13296484D02*
X16436730Y-13296484D01*
X16436730Y-13296484D02*
X16417682Y-13286960D01*
X16417682Y-13286960D02*
X16408158Y-13267912D01*
X16408158Y-13267912D02*
X16408158Y-13191722D01*
X16408158Y-13191722D02*
X16417682Y-13172674D01*
X16417682Y-13172674D02*
X16436730Y-13163150D01*
X16436730Y-13163150D02*
X16474825Y-13163150D01*
X16474825Y-13163150D02*
X16493873Y-13172674D01*
X16493873Y-13172674D02*
X16503396Y-13191722D01*
X16503396Y-13191722D02*
X16503396Y-13210769D01*
X16503396Y-13210769D02*
X16408158Y-13229817D01*
X16674825Y-13296484D02*
X16674825Y-13096484D01*
X16674825Y-13286960D02*
X16655777Y-13296484D01*
X16655777Y-13296484D02*
X16617682Y-13296484D01*
X16617682Y-13296484D02*
X16598634Y-13286960D01*
X16598634Y-13286960D02*
X16589111Y-13277436D01*
X16589111Y-13277436D02*
X16579587Y-13258388D01*
X16579587Y-13258388D02*
X16579587Y-13201246D01*
X16579587Y-13201246D02*
X16589111Y-13182198D01*
X16589111Y-13182198D02*
X16598634Y-13172674D01*
X16598634Y-13172674D02*
X16617682Y-13163150D01*
X16617682Y-13163150D02*
X16655777Y-13163150D01*
X16655777Y-13163150D02*
X16674825Y-13172674D01*
X16751015Y-13372674D02*
X16760539Y-13363150D01*
X16760539Y-13363150D02*
X16779587Y-13334579D01*
X16779587Y-13334579D02*
X16789111Y-13315531D01*
X16789111Y-13315531D02*
X16798635Y-13286960D01*
X16798635Y-13286960D02*
X16808158Y-13239341D01*
X16808158Y-13239341D02*
X16808158Y-13201246D01*
X16808158Y-13201246D02*
X16798635Y-13153627D01*
X16798635Y-13153627D02*
X16789111Y-13125055D01*
X16789111Y-13125055D02*
X16779587Y-13106008D01*
X16779587Y-13106008D02*
X16760539Y-13077436D01*
X16760539Y-13077436D02*
X16751015Y-13067912D01*
M02*
