%TF.GenerationSoftware,KiCad,Pcbnew,9.0.7*%
%TF.CreationDate,2026-07-14T21:47:03-03:00*%
%TF.ProjectId,sht45-qt,73687434-352d-4717-942e-6b696361645f,1.0*%
%TF.SameCoordinates,Original*%
%TF.FileFunction,Legend,Bot*%
%TF.FilePolarity,Positive*%
%FSLAX46Y46*%
G04 Gerber Fmt 4.6, Leading zero omitted, Abs format (unit mm)*
G04 Created by KiCad (PCBNEW 9.0.7) date 2026-07-14 21:47:03*
%MOMM*%
%LPD*%
G01*
G04 APERTURE LIST*
%ADD10C,0.120000*%
G04 APERTURE END LIST*
D10*
X121042858Y-112625760D02*
X120928572Y-112663855D01*
X120928572Y-112663855D02*
X120738096Y-112663855D01*
X120738096Y-112663855D02*
X120661905Y-112625760D01*
X120661905Y-112625760D02*
X120623810Y-112587664D01*
X120623810Y-112587664D02*
X120585715Y-112511474D01*
X120585715Y-112511474D02*
X120585715Y-112435283D01*
X120585715Y-112435283D02*
X120623810Y-112359093D01*
X120623810Y-112359093D02*
X120661905Y-112320998D01*
X120661905Y-112320998D02*
X120738096Y-112282902D01*
X120738096Y-112282902D02*
X120890477Y-112244807D01*
X120890477Y-112244807D02*
X120966667Y-112206712D01*
X120966667Y-112206712D02*
X121004762Y-112168617D01*
X121004762Y-112168617D02*
X121042858Y-112092426D01*
X121042858Y-112092426D02*
X121042858Y-112016236D01*
X121042858Y-112016236D02*
X121004762Y-111940045D01*
X121004762Y-111940045D02*
X120966667Y-111901950D01*
X120966667Y-111901950D02*
X120890477Y-111863855D01*
X120890477Y-111863855D02*
X120700000Y-111863855D01*
X120700000Y-111863855D02*
X120585715Y-111901950D01*
X120242857Y-112663855D02*
X120242857Y-111863855D01*
X120242857Y-112244807D02*
X119785714Y-112244807D01*
X119785714Y-112663855D02*
X119785714Y-111863855D01*
X119519048Y-111863855D02*
X119061905Y-111863855D01*
X119290477Y-112663855D02*
X119290477Y-111863855D01*
X118452381Y-112130521D02*
X118452381Y-112663855D01*
X118642857Y-111825760D02*
X118833334Y-112397188D01*
X118833334Y-112397188D02*
X118338095Y-112397188D01*
X117652381Y-111863855D02*
X118033333Y-111863855D01*
X118033333Y-111863855D02*
X118071429Y-112244807D01*
X118071429Y-112244807D02*
X118033333Y-112206712D01*
X118033333Y-112206712D02*
X117957143Y-112168617D01*
X117957143Y-112168617D02*
X117766667Y-112168617D01*
X117766667Y-112168617D02*
X117690476Y-112206712D01*
X117690476Y-112206712D02*
X117652381Y-112244807D01*
X117652381Y-112244807D02*
X117614286Y-112320998D01*
X117614286Y-112320998D02*
X117614286Y-112511474D01*
X117614286Y-112511474D02*
X117652381Y-112587664D01*
X117652381Y-112587664D02*
X117690476Y-112625760D01*
X117690476Y-112625760D02*
X117766667Y-112663855D01*
X117766667Y-112663855D02*
X117957143Y-112663855D01*
X117957143Y-112663855D02*
X118033333Y-112625760D01*
X118033333Y-112625760D02*
X118071429Y-112587664D01*
X117271428Y-112359093D02*
X116661905Y-112359093D01*
X115747619Y-112740045D02*
X115823809Y-112701950D01*
X115823809Y-112701950D02*
X115900000Y-112625760D01*
X115900000Y-112625760D02*
X116014286Y-112511474D01*
X116014286Y-112511474D02*
X116090476Y-112473379D01*
X116090476Y-112473379D02*
X116166667Y-112473379D01*
X116128571Y-112663855D02*
X116204762Y-112625760D01*
X116204762Y-112625760D02*
X116280952Y-112549569D01*
X116280952Y-112549569D02*
X116319048Y-112397188D01*
X116319048Y-112397188D02*
X116319048Y-112130521D01*
X116319048Y-112130521D02*
X116280952Y-111978140D01*
X116280952Y-111978140D02*
X116204762Y-111901950D01*
X116204762Y-111901950D02*
X116128571Y-111863855D01*
X116128571Y-111863855D02*
X115976190Y-111863855D01*
X115976190Y-111863855D02*
X115900000Y-111901950D01*
X115900000Y-111901950D02*
X115823809Y-111978140D01*
X115823809Y-111978140D02*
X115785714Y-112130521D01*
X115785714Y-112130521D02*
X115785714Y-112397188D01*
X115785714Y-112397188D02*
X115823809Y-112549569D01*
X115823809Y-112549569D02*
X115900000Y-112625760D01*
X115900000Y-112625760D02*
X115976190Y-112663855D01*
X115976190Y-112663855D02*
X116128571Y-112663855D01*
X115557143Y-111863855D02*
X115100000Y-111863855D01*
X115328572Y-112663855D02*
X115328572Y-111863855D01*
X114300000Y-112130521D02*
X114109524Y-112663855D01*
X114109524Y-112663855D02*
X113919047Y-112130521D01*
X113195238Y-112663855D02*
X113652381Y-112663855D01*
X113423809Y-112663855D02*
X113423809Y-111863855D01*
X113423809Y-111863855D02*
X113500000Y-111978140D01*
X113500000Y-111978140D02*
X113576190Y-112054331D01*
X113576190Y-112054331D02*
X113652381Y-112092426D01*
X112852380Y-112587664D02*
X112814285Y-112625760D01*
X112814285Y-112625760D02*
X112852380Y-112663855D01*
X112852380Y-112663855D02*
X112890476Y-112625760D01*
X112890476Y-112625760D02*
X112852380Y-112587664D01*
X112852380Y-112587664D02*
X112852380Y-112663855D01*
X112319047Y-111863855D02*
X112242857Y-111863855D01*
X112242857Y-111863855D02*
X112166666Y-111901950D01*
X112166666Y-111901950D02*
X112128571Y-111940045D01*
X112128571Y-111940045D02*
X112090476Y-112016236D01*
X112090476Y-112016236D02*
X112052381Y-112168617D01*
X112052381Y-112168617D02*
X112052381Y-112359093D01*
X112052381Y-112359093D02*
X112090476Y-112511474D01*
X112090476Y-112511474D02*
X112128571Y-112587664D01*
X112128571Y-112587664D02*
X112166666Y-112625760D01*
X112166666Y-112625760D02*
X112242857Y-112663855D01*
X112242857Y-112663855D02*
X112319047Y-112663855D01*
X112319047Y-112663855D02*
X112395238Y-112625760D01*
X112395238Y-112625760D02*
X112433333Y-112587664D01*
X112433333Y-112587664D02*
X112471428Y-112511474D01*
X112471428Y-112511474D02*
X112509524Y-112359093D01*
X112509524Y-112359093D02*
X112509524Y-112168617D01*
X112509524Y-112168617D02*
X112471428Y-112016236D01*
X112471428Y-112016236D02*
X112433333Y-111940045D01*
X112433333Y-111940045D02*
X112395238Y-111901950D01*
X112395238Y-111901950D02*
X112319047Y-111863855D01*
X111099999Y-112359093D02*
X110490476Y-112359093D01*
X109499999Y-112663855D02*
X109499999Y-111863855D01*
X109157143Y-111940045D02*
X109119047Y-111901950D01*
X109119047Y-111901950D02*
X109042857Y-111863855D01*
X109042857Y-111863855D02*
X108852381Y-111863855D01*
X108852381Y-111863855D02*
X108776190Y-111901950D01*
X108776190Y-111901950D02*
X108738095Y-111940045D01*
X108738095Y-111940045D02*
X108700000Y-112016236D01*
X108700000Y-112016236D02*
X108700000Y-112092426D01*
X108700000Y-112092426D02*
X108738095Y-112206712D01*
X108738095Y-112206712D02*
X109195238Y-112663855D01*
X109195238Y-112663855D02*
X108700000Y-112663855D01*
X107899999Y-112587664D02*
X107938095Y-112625760D01*
X107938095Y-112625760D02*
X108052380Y-112663855D01*
X108052380Y-112663855D02*
X108128571Y-112663855D01*
X108128571Y-112663855D02*
X108242857Y-112625760D01*
X108242857Y-112625760D02*
X108319047Y-112549569D01*
X108319047Y-112549569D02*
X108357142Y-112473379D01*
X108357142Y-112473379D02*
X108395238Y-112320998D01*
X108395238Y-112320998D02*
X108395238Y-112206712D01*
X108395238Y-112206712D02*
X108357142Y-112054331D01*
X108357142Y-112054331D02*
X108319047Y-111978140D01*
X108319047Y-111978140D02*
X108242857Y-111901950D01*
X108242857Y-111901950D02*
X108128571Y-111863855D01*
X108128571Y-111863855D02*
X108052380Y-111863855D01*
X108052380Y-111863855D02*
X107938095Y-111901950D01*
X107938095Y-111901950D02*
X107899999Y-111940045D01*
X106795237Y-111863855D02*
X106719047Y-111863855D01*
X106719047Y-111863855D02*
X106642856Y-111901950D01*
X106642856Y-111901950D02*
X106604761Y-111940045D01*
X106604761Y-111940045D02*
X106566666Y-112016236D01*
X106566666Y-112016236D02*
X106528571Y-112168617D01*
X106528571Y-112168617D02*
X106528571Y-112359093D01*
X106528571Y-112359093D02*
X106566666Y-112511474D01*
X106566666Y-112511474D02*
X106604761Y-112587664D01*
X106604761Y-112587664D02*
X106642856Y-112625760D01*
X106642856Y-112625760D02*
X106719047Y-112663855D01*
X106719047Y-112663855D02*
X106795237Y-112663855D01*
X106795237Y-112663855D02*
X106871428Y-112625760D01*
X106871428Y-112625760D02*
X106909523Y-112587664D01*
X106909523Y-112587664D02*
X106947618Y-112511474D01*
X106947618Y-112511474D02*
X106985714Y-112359093D01*
X106985714Y-112359093D02*
X106985714Y-112168617D01*
X106985714Y-112168617D02*
X106947618Y-112016236D01*
X106947618Y-112016236D02*
X106909523Y-111940045D01*
X106909523Y-111940045D02*
X106871428Y-111901950D01*
X106871428Y-111901950D02*
X106795237Y-111863855D01*
X106261904Y-112663855D02*
X105842856Y-112130521D01*
X106261904Y-112130521D02*
X105842856Y-112663855D01*
X105195237Y-112130521D02*
X105195237Y-112663855D01*
X105385713Y-111825760D02*
X105576190Y-112397188D01*
X105576190Y-112397188D02*
X105080951Y-112397188D01*
X104433332Y-112130521D02*
X104433332Y-112663855D01*
X104623808Y-111825760D02*
X104814285Y-112397188D01*
X104814285Y-112397188D02*
X104319046Y-112397188D01*
X120528573Y-114394807D02*
X120795239Y-114394807D01*
X120795239Y-114813855D02*
X120795239Y-114013855D01*
X120795239Y-114013855D02*
X120414287Y-114013855D01*
X120109525Y-114813855D02*
X120109525Y-114280521D01*
X120109525Y-114432902D02*
X120071430Y-114356712D01*
X120071430Y-114356712D02*
X120033335Y-114318617D01*
X120033335Y-114318617D02*
X119957144Y-114280521D01*
X119957144Y-114280521D02*
X119880954Y-114280521D01*
X119271430Y-114813855D02*
X119271430Y-114394807D01*
X119271430Y-114394807D02*
X119309525Y-114318617D01*
X119309525Y-114318617D02*
X119385716Y-114280521D01*
X119385716Y-114280521D02*
X119538097Y-114280521D01*
X119538097Y-114280521D02*
X119614287Y-114318617D01*
X119271430Y-114775760D02*
X119347621Y-114813855D01*
X119347621Y-114813855D02*
X119538097Y-114813855D01*
X119538097Y-114813855D02*
X119614287Y-114775760D01*
X119614287Y-114775760D02*
X119652383Y-114699569D01*
X119652383Y-114699569D02*
X119652383Y-114623379D01*
X119652383Y-114623379D02*
X119614287Y-114547188D01*
X119614287Y-114547188D02*
X119538097Y-114509093D01*
X119538097Y-114509093D02*
X119347621Y-114509093D01*
X119347621Y-114509093D02*
X119271430Y-114470998D01*
X118890477Y-114280521D02*
X118890477Y-114813855D01*
X118890477Y-114356712D02*
X118852382Y-114318617D01*
X118852382Y-114318617D02*
X118776192Y-114280521D01*
X118776192Y-114280521D02*
X118661906Y-114280521D01*
X118661906Y-114280521D02*
X118585715Y-114318617D01*
X118585715Y-114318617D02*
X118547620Y-114394807D01*
X118547620Y-114394807D02*
X118547620Y-114813855D01*
X117823810Y-114775760D02*
X117900001Y-114813855D01*
X117900001Y-114813855D02*
X118052382Y-114813855D01*
X118052382Y-114813855D02*
X118128572Y-114775760D01*
X118128572Y-114775760D02*
X118166667Y-114737664D01*
X118166667Y-114737664D02*
X118204763Y-114661474D01*
X118204763Y-114661474D02*
X118204763Y-114432902D01*
X118204763Y-114432902D02*
X118166667Y-114356712D01*
X118166667Y-114356712D02*
X118128572Y-114318617D01*
X118128572Y-114318617D02*
X118052382Y-114280521D01*
X118052382Y-114280521D02*
X117900001Y-114280521D01*
X117900001Y-114280521D02*
X117823810Y-114318617D01*
X117366668Y-114813855D02*
X117442858Y-114775760D01*
X117442858Y-114775760D02*
X117480953Y-114737664D01*
X117480953Y-114737664D02*
X117519049Y-114661474D01*
X117519049Y-114661474D02*
X117519049Y-114432902D01*
X117519049Y-114432902D02*
X117480953Y-114356712D01*
X117480953Y-114356712D02*
X117442858Y-114318617D01*
X117442858Y-114318617D02*
X117366668Y-114280521D01*
X117366668Y-114280521D02*
X117252382Y-114280521D01*
X117252382Y-114280521D02*
X117176191Y-114318617D01*
X117176191Y-114318617D02*
X117138096Y-114356712D01*
X117138096Y-114356712D02*
X117100001Y-114432902D01*
X117100001Y-114432902D02*
X117100001Y-114661474D01*
X117100001Y-114661474D02*
X117138096Y-114737664D01*
X117138096Y-114737664D02*
X117176191Y-114775760D01*
X117176191Y-114775760D02*
X117252382Y-114813855D01*
X117252382Y-114813855D02*
X117366668Y-114813855D01*
X116185715Y-114775760D02*
X116071429Y-114813855D01*
X116071429Y-114813855D02*
X115880953Y-114813855D01*
X115880953Y-114813855D02*
X115804762Y-114775760D01*
X115804762Y-114775760D02*
X115766667Y-114737664D01*
X115766667Y-114737664D02*
X115728572Y-114661474D01*
X115728572Y-114661474D02*
X115728572Y-114585283D01*
X115728572Y-114585283D02*
X115766667Y-114509093D01*
X115766667Y-114509093D02*
X115804762Y-114470998D01*
X115804762Y-114470998D02*
X115880953Y-114432902D01*
X115880953Y-114432902D02*
X116033334Y-114394807D01*
X116033334Y-114394807D02*
X116109524Y-114356712D01*
X116109524Y-114356712D02*
X116147619Y-114318617D01*
X116147619Y-114318617D02*
X116185715Y-114242426D01*
X116185715Y-114242426D02*
X116185715Y-114166236D01*
X116185715Y-114166236D02*
X116147619Y-114090045D01*
X116147619Y-114090045D02*
X116109524Y-114051950D01*
X116109524Y-114051950D02*
X116033334Y-114013855D01*
X116033334Y-114013855D02*
X115842857Y-114013855D01*
X115842857Y-114013855D02*
X115728572Y-114051950D01*
X115385714Y-114280521D02*
X115385714Y-115080521D01*
X115385714Y-114318617D02*
X115309524Y-114280521D01*
X115309524Y-114280521D02*
X115157143Y-114280521D01*
X115157143Y-114280521D02*
X115080952Y-114318617D01*
X115080952Y-114318617D02*
X115042857Y-114356712D01*
X115042857Y-114356712D02*
X115004762Y-114432902D01*
X115004762Y-114432902D02*
X115004762Y-114661474D01*
X115004762Y-114661474D02*
X115042857Y-114737664D01*
X115042857Y-114737664D02*
X115080952Y-114775760D01*
X115080952Y-114775760D02*
X115157143Y-114813855D01*
X115157143Y-114813855D02*
X115309524Y-114813855D01*
X115309524Y-114813855D02*
X115385714Y-114775760D01*
X114661904Y-114813855D02*
X114661904Y-114280521D01*
X114661904Y-114013855D02*
X114700000Y-114051950D01*
X114700000Y-114051950D02*
X114661904Y-114090045D01*
X114661904Y-114090045D02*
X114623809Y-114051950D01*
X114623809Y-114051950D02*
X114661904Y-114013855D01*
X114661904Y-114013855D02*
X114661904Y-114090045D01*
X114395238Y-114280521D02*
X114090476Y-114280521D01*
X114280952Y-114013855D02*
X114280952Y-114699569D01*
X114280952Y-114699569D02*
X114242857Y-114775760D01*
X114242857Y-114775760D02*
X114166667Y-114813855D01*
X114166667Y-114813855D02*
X114090476Y-114813855D01*
X113480952Y-114813855D02*
X113480952Y-114394807D01*
X113480952Y-114394807D02*
X113519047Y-114318617D01*
X113519047Y-114318617D02*
X113595238Y-114280521D01*
X113595238Y-114280521D02*
X113747619Y-114280521D01*
X113747619Y-114280521D02*
X113823809Y-114318617D01*
X113480952Y-114775760D02*
X113557143Y-114813855D01*
X113557143Y-114813855D02*
X113747619Y-114813855D01*
X113747619Y-114813855D02*
X113823809Y-114775760D01*
X113823809Y-114775760D02*
X113861905Y-114699569D01*
X113861905Y-114699569D02*
X113861905Y-114623379D01*
X113861905Y-114623379D02*
X113823809Y-114547188D01*
X113823809Y-114547188D02*
X113747619Y-114509093D01*
X113747619Y-114509093D02*
X113557143Y-114509093D01*
X113557143Y-114509093D02*
X113480952Y-114470998D01*
X112985714Y-114813855D02*
X113061904Y-114775760D01*
X113061904Y-114775760D02*
X113099999Y-114699569D01*
X113099999Y-114699569D02*
X113099999Y-114013855D01*
X112376189Y-114775760D02*
X112452380Y-114813855D01*
X112452380Y-114813855D02*
X112604761Y-114813855D01*
X112604761Y-114813855D02*
X112680951Y-114775760D01*
X112680951Y-114775760D02*
X112719047Y-114699569D01*
X112719047Y-114699569D02*
X112719047Y-114394807D01*
X112719047Y-114394807D02*
X112680951Y-114318617D01*
X112680951Y-114318617D02*
X112604761Y-114280521D01*
X112604761Y-114280521D02*
X112452380Y-114280521D01*
X112452380Y-114280521D02*
X112376189Y-114318617D01*
X112376189Y-114318617D02*
X112338094Y-114394807D01*
X112338094Y-114394807D02*
X112338094Y-114470998D01*
X112338094Y-114470998D02*
X112719047Y-114547188D01*
X111423809Y-114090045D02*
X111385713Y-114051950D01*
X111385713Y-114051950D02*
X111309523Y-114013855D01*
X111309523Y-114013855D02*
X111119047Y-114013855D01*
X111119047Y-114013855D02*
X111042856Y-114051950D01*
X111042856Y-114051950D02*
X111004761Y-114090045D01*
X111004761Y-114090045D02*
X110966666Y-114166236D01*
X110966666Y-114166236D02*
X110966666Y-114242426D01*
X110966666Y-114242426D02*
X111004761Y-114356712D01*
X111004761Y-114356712D02*
X111461904Y-114813855D01*
X111461904Y-114813855D02*
X110966666Y-114813855D01*
X110471427Y-114013855D02*
X110395237Y-114013855D01*
X110395237Y-114013855D02*
X110319046Y-114051950D01*
X110319046Y-114051950D02*
X110280951Y-114090045D01*
X110280951Y-114090045D02*
X110242856Y-114166236D01*
X110242856Y-114166236D02*
X110204761Y-114318617D01*
X110204761Y-114318617D02*
X110204761Y-114509093D01*
X110204761Y-114509093D02*
X110242856Y-114661474D01*
X110242856Y-114661474D02*
X110280951Y-114737664D01*
X110280951Y-114737664D02*
X110319046Y-114775760D01*
X110319046Y-114775760D02*
X110395237Y-114813855D01*
X110395237Y-114813855D02*
X110471427Y-114813855D01*
X110471427Y-114813855D02*
X110547618Y-114775760D01*
X110547618Y-114775760D02*
X110585713Y-114737664D01*
X110585713Y-114737664D02*
X110623808Y-114661474D01*
X110623808Y-114661474D02*
X110661904Y-114509093D01*
X110661904Y-114509093D02*
X110661904Y-114318617D01*
X110661904Y-114318617D02*
X110623808Y-114166236D01*
X110623808Y-114166236D02*
X110585713Y-114090045D01*
X110585713Y-114090045D02*
X110547618Y-114051950D01*
X110547618Y-114051950D02*
X110471427Y-114013855D01*
X109899999Y-114090045D02*
X109861903Y-114051950D01*
X109861903Y-114051950D02*
X109785713Y-114013855D01*
X109785713Y-114013855D02*
X109595237Y-114013855D01*
X109595237Y-114013855D02*
X109519046Y-114051950D01*
X109519046Y-114051950D02*
X109480951Y-114090045D01*
X109480951Y-114090045D02*
X109442856Y-114166236D01*
X109442856Y-114166236D02*
X109442856Y-114242426D01*
X109442856Y-114242426D02*
X109480951Y-114356712D01*
X109480951Y-114356712D02*
X109938094Y-114813855D01*
X109938094Y-114813855D02*
X109442856Y-114813855D01*
X108757141Y-114013855D02*
X108909522Y-114013855D01*
X108909522Y-114013855D02*
X108985713Y-114051950D01*
X108985713Y-114051950D02*
X109023808Y-114090045D01*
X109023808Y-114090045D02*
X109099998Y-114204331D01*
X109099998Y-114204331D02*
X109138094Y-114356712D01*
X109138094Y-114356712D02*
X109138094Y-114661474D01*
X109138094Y-114661474D02*
X109099998Y-114737664D01*
X109099998Y-114737664D02*
X109061903Y-114775760D01*
X109061903Y-114775760D02*
X108985713Y-114813855D01*
X108985713Y-114813855D02*
X108833332Y-114813855D01*
X108833332Y-114813855D02*
X108757141Y-114775760D01*
X108757141Y-114775760D02*
X108719046Y-114737664D01*
X108719046Y-114737664D02*
X108680951Y-114661474D01*
X108680951Y-114661474D02*
X108680951Y-114470998D01*
X108680951Y-114470998D02*
X108719046Y-114394807D01*
X108719046Y-114394807D02*
X108757141Y-114356712D01*
X108757141Y-114356712D02*
X108833332Y-114318617D01*
X108833332Y-114318617D02*
X108985713Y-114318617D01*
X108985713Y-114318617D02*
X109061903Y-114356712D01*
X109061903Y-114356712D02*
X109099998Y-114394807D01*
X109099998Y-114394807D02*
X109138094Y-114470998D01*
X107728569Y-114509093D02*
X107119046Y-114509093D01*
X106128569Y-114813855D02*
X106128569Y-114013855D01*
X106128569Y-114013855D02*
X105861903Y-114585283D01*
X105861903Y-114585283D02*
X105595236Y-114013855D01*
X105595236Y-114013855D02*
X105595236Y-114813855D01*
X105214283Y-114813855D02*
X105214283Y-114013855D01*
X104947617Y-114013855D02*
X104490474Y-114013855D01*
X104719046Y-114813855D02*
X104719046Y-114013855D01*
%LPC*%
G36*
X109740000Y-118960000D02*
G01*
X108040000Y-118960000D01*
X108040000Y-117260000D01*
X109740000Y-117260000D01*
X109740000Y-118960000D01*
G37*
G36*
X111676742Y-117296601D02*
G01*
X111830687Y-117360367D01*
X111969234Y-117452941D01*
X112087059Y-117570766D01*
X112179633Y-117709313D01*
X112243399Y-117863258D01*
X112275907Y-118026685D01*
X112275907Y-118193315D01*
X112243399Y-118356742D01*
X112179633Y-118510687D01*
X112087059Y-118649234D01*
X111969234Y-118767059D01*
X111830687Y-118859633D01*
X111676742Y-118923399D01*
X111513315Y-118955907D01*
X111346685Y-118955907D01*
X111183258Y-118923399D01*
X111029313Y-118859633D01*
X110890766Y-118767059D01*
X110772941Y-118649234D01*
X110680367Y-118510687D01*
X110616601Y-118356742D01*
X110584093Y-118193315D01*
X110584093Y-118026685D01*
X110616601Y-117863258D01*
X110680367Y-117709313D01*
X110772941Y-117570766D01*
X110890766Y-117452941D01*
X111029313Y-117360367D01*
X111183258Y-117296601D01*
X111346685Y-117264093D01*
X111513315Y-117264093D01*
X111676742Y-117296601D01*
G37*
G36*
X114216742Y-117296601D02*
G01*
X114370687Y-117360367D01*
X114509234Y-117452941D01*
X114627059Y-117570766D01*
X114719633Y-117709313D01*
X114783399Y-117863258D01*
X114815907Y-118026685D01*
X114815907Y-118193315D01*
X114783399Y-118356742D01*
X114719633Y-118510687D01*
X114627059Y-118649234D01*
X114509234Y-118767059D01*
X114370687Y-118859633D01*
X114216742Y-118923399D01*
X114053315Y-118955907D01*
X113886685Y-118955907D01*
X113723258Y-118923399D01*
X113569313Y-118859633D01*
X113430766Y-118767059D01*
X113312941Y-118649234D01*
X113220367Y-118510687D01*
X113156601Y-118356742D01*
X113124093Y-118193315D01*
X113124093Y-118026685D01*
X113156601Y-117863258D01*
X113220367Y-117709313D01*
X113312941Y-117570766D01*
X113430766Y-117452941D01*
X113569313Y-117360367D01*
X113723258Y-117296601D01*
X113886685Y-117264093D01*
X114053315Y-117264093D01*
X114216742Y-117296601D01*
G37*
G36*
X116756742Y-117296601D02*
G01*
X116910687Y-117360367D01*
X117049234Y-117452941D01*
X117167059Y-117570766D01*
X117259633Y-117709313D01*
X117323399Y-117863258D01*
X117355907Y-118026685D01*
X117355907Y-118193315D01*
X117323399Y-118356742D01*
X117259633Y-118510687D01*
X117167059Y-118649234D01*
X117049234Y-118767059D01*
X116910687Y-118859633D01*
X116756742Y-118923399D01*
X116593315Y-118955907D01*
X116426685Y-118955907D01*
X116263258Y-118923399D01*
X116109313Y-118859633D01*
X115970766Y-118767059D01*
X115852941Y-118649234D01*
X115760367Y-118510687D01*
X115696601Y-118356742D01*
X115664093Y-118193315D01*
X115664093Y-118026685D01*
X115696601Y-117863258D01*
X115760367Y-117709313D01*
X115852941Y-117570766D01*
X115970766Y-117452941D01*
X116109313Y-117360367D01*
X116263258Y-117296601D01*
X116426685Y-117264093D01*
X116593315Y-117264093D01*
X116756742Y-117296601D01*
G37*
G36*
X103715151Y-115987301D02*
G01*
X103916623Y-116052763D01*
X104105373Y-116148936D01*
X104276755Y-116273452D01*
X104426548Y-116423245D01*
X104551064Y-116594627D01*
X104647237Y-116783377D01*
X104712699Y-116984849D01*
X104745838Y-117194080D01*
X104745838Y-117405920D01*
X104712699Y-117615151D01*
X104647237Y-117816623D01*
X104551064Y-118005373D01*
X104426548Y-118176755D01*
X104276755Y-118326548D01*
X104105373Y-118451064D01*
X103916623Y-118547237D01*
X103715151Y-118612699D01*
X103505920Y-118645838D01*
X103294080Y-118645838D01*
X103084849Y-118612699D01*
X102883377Y-118547237D01*
X102694627Y-118451064D01*
X102523245Y-118326548D01*
X102373452Y-118176755D01*
X102248936Y-118005373D01*
X102152763Y-117816623D01*
X102087301Y-117615151D01*
X102054162Y-117405920D01*
X102054162Y-117194080D01*
X102087301Y-116984849D01*
X102152763Y-116783377D01*
X102248936Y-116594627D01*
X102373452Y-116423245D01*
X102523245Y-116273452D01*
X102694627Y-116148936D01*
X102883377Y-116052763D01*
X103084849Y-115987301D01*
X103294080Y-115954162D01*
X103505920Y-115954162D01*
X103715151Y-115987301D01*
G37*
G36*
X122315151Y-115987301D02*
G01*
X122516623Y-116052763D01*
X122705373Y-116148936D01*
X122876755Y-116273452D01*
X123026548Y-116423245D01*
X123151064Y-116594627D01*
X123247237Y-116783377D01*
X123312699Y-116984849D01*
X123345838Y-117194080D01*
X123345838Y-117405920D01*
X123312699Y-117615151D01*
X123247237Y-117816623D01*
X123151064Y-118005373D01*
X123026548Y-118176755D01*
X122876755Y-118326548D01*
X122705373Y-118451064D01*
X122516623Y-118547237D01*
X122315151Y-118612699D01*
X122105920Y-118645838D01*
X121894080Y-118645838D01*
X121684849Y-118612699D01*
X121483377Y-118547237D01*
X121294627Y-118451064D01*
X121123245Y-118326548D01*
X120973452Y-118176755D01*
X120848936Y-118005373D01*
X120752763Y-117816623D01*
X120687301Y-117615151D01*
X120654162Y-117405920D01*
X120654162Y-117194080D01*
X120687301Y-116984849D01*
X120752763Y-116783377D01*
X120848936Y-116594627D01*
X120973452Y-116423245D01*
X121123245Y-116273452D01*
X121294627Y-116148936D01*
X121483377Y-116052763D01*
X121684849Y-115987301D01*
X121894080Y-115954162D01*
X122105920Y-115954162D01*
X122315151Y-115987301D01*
G37*
%LPD*%
M02*
