%TF.GenerationSoftware,KiCad,Pcbnew,9.0.7*%
%TF.CreationDate,2026-07-14T21:47:03-03:00*%
%TF.ProjectId,sht45-qt,73687434-352d-4717-942e-6b696361645f,1.0*%
%TF.SameCoordinates,Original*%
%TF.FileFunction,Copper,L2,Bot*%
%TF.FilePolarity,Positive*%
%FSLAX46Y46*%
G04 Gerber Fmt 4.6, Leading zero omitted, Abs format (unit mm)*
G04 Created by KiCad (PCBNEW 9.0.7) date 2026-07-14 21:47:03*
%MOMM*%
%LPD*%
G01*
G04 APERTURE LIST*
%TA.AperFunction,ComponentPad*%
%ADD10R,1.700000X1.700000*%
%TD*%
%TA.AperFunction,ComponentPad*%
%ADD11C,1.700000*%
%TD*%
%TA.AperFunction,ViaPad*%
%ADD12C,0.600000*%
%TD*%
%TA.AperFunction,Conductor*%
%ADD13C,0.250000*%
%TD*%
G04 APERTURE END LIST*
D10*
%TO.P,J3,1*%
%TO.N,GND*%
X108890000Y-118110000D03*
D11*
%TO.P,J3,2*%
%TO.N,+3V3*%
X111430000Y-118110000D03*
%TO.P,J3,3*%
%TO.N,SDA*%
X113970000Y-118110000D03*
%TO.P,J3,4*%
%TO.N,SCL*%
X116510000Y-118110000D03*
%TD*%
D12*
%TO.N,GND*%
X121200000Y-102000000D03*
X109300000Y-113500000D03*
X115500000Y-104800000D03*
X112000000Y-119500000D03*
X105000000Y-119300000D03*
X104600000Y-105500000D03*
X120800000Y-105500000D03*
X120400000Y-119500000D03*
X111900000Y-108450000D03*
X104000000Y-102000000D03*
%TO.N,SDA*%
X106950000Y-110500000D03*
X119700000Y-109500000D03*
X110600000Y-113600000D03*
%TO.N,SCL*%
X119000000Y-108500000D03*
X106650000Y-111500000D03*
X114900000Y-113600000D03*
%TD*%
D13*
%TO.N,GND*%
X104000000Y-102000000D02*
X104000000Y-100700000D01*
X115500000Y-100700000D02*
X115500000Y-104800000D01*
X104000000Y-100700000D02*
X115500000Y-100700000D01*
%TO.N,SDA*%
X106950000Y-110500000D02*
X110600000Y-110500000D01*
X119700000Y-119350000D02*
X113970000Y-119350000D01*
X110600000Y-110500000D02*
X110600000Y-116850000D01*
X113970000Y-119350000D02*
X113970000Y-118110000D01*
X113970000Y-116850000D02*
X113970000Y-118110000D01*
X110600000Y-116850000D02*
X113970000Y-116850000D01*
X119700000Y-109500000D02*
X119700000Y-119350000D01*
%TO.N,SCL*%
X106100000Y-109800000D02*
X114900000Y-109800000D01*
X114900000Y-116150000D02*
X116510000Y-116150000D01*
X116510000Y-116150000D02*
X116510000Y-118110000D01*
X106100000Y-111500000D02*
X106100000Y-109800000D01*
X119000000Y-108500000D02*
X119000000Y-118110000D01*
X119000000Y-118110000D02*
X116510000Y-118110000D01*
X114900000Y-109800000D02*
X114900000Y-116150000D01*
X106650000Y-111500000D02*
X106100000Y-111500000D01*
%TD*%
%TA.AperFunction,Conductor*%
%TO.N,GND*%
G36*
X108559191Y-100269407D02*
G01*
X108595155Y-100318907D01*
X108600000Y-100349500D01*
X108600000Y-107900000D01*
X108600001Y-107900000D01*
X117799999Y-107900000D01*
X117800000Y-107900000D01*
X117800000Y-100349500D01*
X117818907Y-100291309D01*
X117868407Y-100255345D01*
X117899000Y-100250500D01*
X123755830Y-100250500D01*
X123796107Y-100250500D01*
X123803874Y-100250805D01*
X123834940Y-100253249D01*
X124003345Y-100266504D01*
X124018675Y-100268931D01*
X124209448Y-100314731D01*
X124224214Y-100319529D01*
X124405472Y-100394609D01*
X124419294Y-100401652D01*
X124586568Y-100504158D01*
X124599135Y-100513288D01*
X124748315Y-100640698D01*
X124759301Y-100651684D01*
X124886711Y-100800864D01*
X124895841Y-100813431D01*
X124998344Y-100980700D01*
X125005392Y-100994532D01*
X125032570Y-101060146D01*
X125080468Y-101175781D01*
X125085269Y-101190556D01*
X125131066Y-101381316D01*
X125133496Y-101396659D01*
X125149195Y-101596124D01*
X125149500Y-101603892D01*
X125149500Y-118716107D01*
X125149195Y-118723875D01*
X125133496Y-118923340D01*
X125131066Y-118938683D01*
X125085269Y-119129443D01*
X125080468Y-119144218D01*
X125005393Y-119325465D01*
X124998340Y-119339307D01*
X124895841Y-119506568D01*
X124886711Y-119519135D01*
X124759301Y-119668315D01*
X124748315Y-119679301D01*
X124599135Y-119806711D01*
X124586568Y-119815841D01*
X124419307Y-119918340D01*
X124405465Y-119925393D01*
X124224218Y-120000468D01*
X124209443Y-120005269D01*
X124018683Y-120051066D01*
X124003340Y-120053496D01*
X123803875Y-120069195D01*
X123796107Y-120069500D01*
X101603893Y-120069500D01*
X101596125Y-120069195D01*
X101396659Y-120053496D01*
X101381316Y-120051066D01*
X101190556Y-120005269D01*
X101175781Y-120000468D01*
X100994534Y-119925393D01*
X100980700Y-119918344D01*
X100813431Y-119815841D01*
X100800864Y-119806711D01*
X100651684Y-119679301D01*
X100640698Y-119668315D01*
X100513288Y-119519135D01*
X100504158Y-119506568D01*
X100401652Y-119339294D01*
X100394609Y-119325472D01*
X100319529Y-119144214D01*
X100314730Y-119129443D01*
X100268931Y-118938675D01*
X100266504Y-118923345D01*
X100250805Y-118723874D01*
X100250500Y-118716107D01*
X100250500Y-117174034D01*
X101799500Y-117174034D01*
X101799500Y-117425965D01*
X101838908Y-117674780D01*
X101850320Y-117709901D01*
X101916759Y-117914379D01*
X102031130Y-118138845D01*
X102179207Y-118342656D01*
X102357344Y-118520793D01*
X102561155Y-118668870D01*
X102785621Y-118783241D01*
X103025215Y-118861090D01*
X103025216Y-118861090D01*
X103025219Y-118861091D01*
X103274035Y-118900500D01*
X103274038Y-118900500D01*
X103525965Y-118900500D01*
X103774780Y-118861091D01*
X103774781Y-118861090D01*
X103774785Y-118861090D01*
X104014379Y-118783241D01*
X104238845Y-118668870D01*
X104442656Y-118520793D01*
X104620793Y-118342656D01*
X104768870Y-118138845D01*
X104883241Y-117914379D01*
X104961090Y-117674785D01*
X104961091Y-117674780D01*
X105000500Y-117425965D01*
X105000500Y-117215202D01*
X107740000Y-117215202D01*
X107740000Y-117934999D01*
X107740001Y-117935000D01*
X108419254Y-117935000D01*
X108390000Y-118044174D01*
X108390000Y-118175826D01*
X108419254Y-118285000D01*
X107740002Y-118285000D01*
X107740001Y-118285001D01*
X107740001Y-119004791D01*
X107742909Y-119029874D01*
X107788213Y-119132477D01*
X107867522Y-119211786D01*
X107970127Y-119257090D01*
X107995203Y-119259999D01*
X108714998Y-119259999D01*
X108715000Y-119259998D01*
X108715000Y-118580746D01*
X108824174Y-118610000D01*
X108955826Y-118610000D01*
X109065000Y-118580746D01*
X109065000Y-119259998D01*
X109065001Y-119259999D01*
X109784790Y-119259999D01*
X109784791Y-119259998D01*
X109809874Y-119257090D01*
X109912477Y-119211786D01*
X109991786Y-119132477D01*
X110037090Y-119029872D01*
X110039999Y-119004797D01*
X110040000Y-119004795D01*
X110040000Y-118285001D01*
X110039999Y-118285000D01*
X109360746Y-118285000D01*
X109390000Y-118175826D01*
X109390000Y-118044174D01*
X109360746Y-117935000D01*
X110039998Y-117935000D01*
X110039999Y-117934999D01*
X110039999Y-117215210D01*
X110039998Y-117215208D01*
X110037090Y-117190125D01*
X109991786Y-117087522D01*
X109912477Y-117008213D01*
X109809872Y-116962909D01*
X109784797Y-116960000D01*
X109065001Y-116960000D01*
X109065000Y-116960001D01*
X109065000Y-117639253D01*
X108955826Y-117610000D01*
X108824174Y-117610000D01*
X108715000Y-117639253D01*
X108715000Y-116960001D01*
X108714999Y-116960000D01*
X107995210Y-116960000D01*
X107995207Y-116960001D01*
X107970125Y-116962909D01*
X107867522Y-117008213D01*
X107788213Y-117087522D01*
X107742909Y-117190127D01*
X107740000Y-117215202D01*
X105000500Y-117215202D01*
X105000500Y-117174034D01*
X104961091Y-116925219D01*
X104961090Y-116925215D01*
X104883241Y-116685621D01*
X104768870Y-116461155D01*
X104620793Y-116257344D01*
X104442656Y-116079207D01*
X104238845Y-115931130D01*
X104238844Y-115931129D01*
X104238842Y-115931128D01*
X104014379Y-115816759D01*
X103774780Y-115738908D01*
X103525965Y-115699500D01*
X103525962Y-115699500D01*
X103274038Y-115699500D01*
X103274035Y-115699500D01*
X103025219Y-115738908D01*
X102785620Y-115816759D01*
X102561157Y-115931128D01*
X102357345Y-116079206D01*
X102179206Y-116257345D01*
X102031128Y-116461157D01*
X101916759Y-116685620D01*
X101838908Y-116925219D01*
X101799500Y-117174034D01*
X100250500Y-117174034D01*
X100250500Y-109743982D01*
X105674500Y-109743982D01*
X105674500Y-111443982D01*
X105674500Y-111556018D01*
X105700072Y-111651455D01*
X105703498Y-111664241D01*
X105742495Y-111731784D01*
X105759515Y-111761263D01*
X105838737Y-111840485D01*
X105838739Y-111840486D01*
X105935759Y-111896501D01*
X105935757Y-111896501D01*
X105935761Y-111896502D01*
X105935763Y-111896503D01*
X106043982Y-111925500D01*
X106185256Y-111925500D01*
X106243447Y-111944407D01*
X106255258Y-111954495D01*
X106281281Y-111980517D01*
X106281284Y-111980520D01*
X106418216Y-112059577D01*
X106570943Y-112100500D01*
X106570945Y-112100500D01*
X106729055Y-112100500D01*
X106729057Y-112100500D01*
X106881784Y-112059577D01*
X107018716Y-111980520D01*
X107130520Y-111868716D01*
X107209577Y-111731784D01*
X107250500Y-111579057D01*
X107250500Y-111420943D01*
X107209577Y-111268216D01*
X107161784Y-111185436D01*
X107149063Y-111125590D01*
X107173949Y-111069694D01*
X107198017Y-111050204D01*
X107318716Y-110980520D01*
X107331729Y-110967506D01*
X107344742Y-110954495D01*
X107399259Y-110926719D01*
X107414744Y-110925500D01*
X110075500Y-110925500D01*
X110133691Y-110944407D01*
X110169655Y-110993907D01*
X110174500Y-111024500D01*
X110174500Y-113135256D01*
X110155593Y-113193447D01*
X110145505Y-113205258D01*
X110119482Y-113231281D01*
X110119480Y-113231283D01*
X110119480Y-113231284D01*
X110040423Y-113368216D01*
X109999500Y-113520943D01*
X109999500Y-113679057D01*
X110040423Y-113831784D01*
X110119480Y-113968716D01*
X110145505Y-113994741D01*
X110173281Y-114049256D01*
X110174500Y-114064743D01*
X110174500Y-116793982D01*
X110174500Y-116906018D01*
X110188965Y-116960001D01*
X110203498Y-117014241D01*
X110245808Y-117087522D01*
X110259515Y-117111263D01*
X110338737Y-117190485D01*
X110338739Y-117190486D01*
X110435759Y-117246501D01*
X110435760Y-117246501D01*
X110435763Y-117246503D01*
X110463622Y-117253967D01*
X110514936Y-117287291D01*
X110536863Y-117344412D01*
X110521028Y-117403513D01*
X110518092Y-117407784D01*
X110446005Y-117507002D01*
X110446003Y-117507006D01*
X110363788Y-117668362D01*
X110307828Y-117840593D01*
X110279500Y-118019450D01*
X110279500Y-118200549D01*
X110307828Y-118379406D01*
X110353766Y-118520793D01*
X110363789Y-118551639D01*
X110366982Y-118557906D01*
X110423521Y-118668870D01*
X110446004Y-118712994D01*
X110552447Y-118859501D01*
X110680499Y-118987553D01*
X110827006Y-119093996D01*
X110988361Y-119176211D01*
X111160591Y-119232171D01*
X111232136Y-119243502D01*
X111339451Y-119260500D01*
X111339454Y-119260500D01*
X111520549Y-119260500D01*
X111617772Y-119245101D01*
X111699409Y-119232171D01*
X111871639Y-119176211D01*
X112032994Y-119093996D01*
X112179501Y-118987553D01*
X112307553Y-118859501D01*
X112413996Y-118712994D01*
X112496211Y-118551639D01*
X112552171Y-118379409D01*
X112580500Y-118200546D01*
X112580500Y-118019454D01*
X112580500Y-118019450D01*
X112552171Y-117840593D01*
X112552171Y-117840591D01*
X112496211Y-117668361D01*
X112413996Y-117507006D01*
X112360002Y-117432690D01*
X112341095Y-117374500D01*
X112360002Y-117316310D01*
X112409502Y-117280346D01*
X112440095Y-117275500D01*
X112959905Y-117275500D01*
X113018096Y-117294407D01*
X113054060Y-117343907D01*
X113054060Y-117405093D01*
X113039997Y-117432691D01*
X112986007Y-117507000D01*
X112986003Y-117507006D01*
X112903788Y-117668362D01*
X112847828Y-117840593D01*
X112819500Y-118019450D01*
X112819500Y-118200549D01*
X112847828Y-118379406D01*
X112893766Y-118520793D01*
X112903789Y-118551639D01*
X112906982Y-118557906D01*
X112963521Y-118668870D01*
X112986004Y-118712994D01*
X113092447Y-118859501D01*
X113220499Y-118987553D01*
X113367006Y-119093996D01*
X113490446Y-119156892D01*
X113533710Y-119200156D01*
X113544500Y-119245101D01*
X113544500Y-119406018D01*
X113570072Y-119501455D01*
X113573498Y-119514241D01*
X113629513Y-119611260D01*
X113629515Y-119611263D01*
X113708737Y-119690485D01*
X113708739Y-119690486D01*
X113805759Y-119746501D01*
X113805757Y-119746501D01*
X113805761Y-119746502D01*
X113805763Y-119746503D01*
X113913982Y-119775500D01*
X113913984Y-119775500D01*
X119756016Y-119775500D01*
X119756018Y-119775500D01*
X119864237Y-119746503D01*
X119864239Y-119746501D01*
X119864241Y-119746501D01*
X119893064Y-119729859D01*
X119961263Y-119690485D01*
X120040485Y-119611263D01*
X120096503Y-119514237D01*
X120125500Y-119406018D01*
X120125500Y-117174034D01*
X120399500Y-117174034D01*
X120399500Y-117425965D01*
X120438908Y-117674780D01*
X120450320Y-117709901D01*
X120516759Y-117914379D01*
X120631130Y-118138845D01*
X120779207Y-118342656D01*
X120957344Y-118520793D01*
X121161155Y-118668870D01*
X121385621Y-118783241D01*
X121625215Y-118861090D01*
X121625216Y-118861090D01*
X121625219Y-118861091D01*
X121874035Y-118900500D01*
X121874038Y-118900500D01*
X122125965Y-118900500D01*
X122374780Y-118861091D01*
X122374781Y-118861090D01*
X122374785Y-118861090D01*
X122614379Y-118783241D01*
X122838845Y-118668870D01*
X123042656Y-118520793D01*
X123220793Y-118342656D01*
X123368870Y-118138845D01*
X123483241Y-117914379D01*
X123561090Y-117674785D01*
X123561091Y-117674780D01*
X123600500Y-117425965D01*
X123600500Y-117174034D01*
X123561091Y-116925219D01*
X123561090Y-116925215D01*
X123483241Y-116685621D01*
X123368870Y-116461155D01*
X123220793Y-116257344D01*
X123042656Y-116079207D01*
X122838845Y-115931130D01*
X122838844Y-115931129D01*
X122838842Y-115931128D01*
X122614379Y-115816759D01*
X122374780Y-115738908D01*
X122125965Y-115699500D01*
X122125962Y-115699500D01*
X121874038Y-115699500D01*
X121874035Y-115699500D01*
X121625219Y-115738908D01*
X121385620Y-115816759D01*
X121161157Y-115931128D01*
X120957345Y-116079206D01*
X120779206Y-116257345D01*
X120631128Y-116461157D01*
X120516759Y-116685620D01*
X120438908Y-116925219D01*
X120399500Y-117174034D01*
X120125500Y-117174034D01*
X120125500Y-109964743D01*
X120144407Y-109906552D01*
X120154490Y-109894745D01*
X120180520Y-109868716D01*
X120259577Y-109731784D01*
X120300500Y-109579057D01*
X120300500Y-109420943D01*
X120259577Y-109268216D01*
X120180520Y-109131284D01*
X120068716Y-109019480D01*
X119931784Y-108940423D01*
X119779057Y-108899500D01*
X119634219Y-108899500D01*
X119576028Y-108880593D01*
X119540064Y-108831093D01*
X119540064Y-108769907D01*
X119548479Y-108751005D01*
X119559577Y-108731784D01*
X119600500Y-108579057D01*
X119600500Y-108420943D01*
X119559577Y-108268216D01*
X119480520Y-108131284D01*
X119368716Y-108019480D01*
X119231784Y-107940423D01*
X119079057Y-107899500D01*
X118920943Y-107899500D01*
X118768216Y-107940423D01*
X118631284Y-108019480D01*
X118519480Y-108131284D01*
X118440423Y-108268216D01*
X118399500Y-108420943D01*
X118399500Y-108579057D01*
X118440423Y-108731784D01*
X118519480Y-108868716D01*
X118545505Y-108894741D01*
X118573281Y-108949256D01*
X118574500Y-108964743D01*
X118574500Y-117585500D01*
X118555593Y-117643691D01*
X118506093Y-117679655D01*
X118475500Y-117684500D01*
X117645101Y-117684500D01*
X117586910Y-117665593D01*
X117556892Y-117630447D01*
X117493996Y-117507006D01*
X117387553Y-117360499D01*
X117259501Y-117232447D01*
X117112994Y-117126004D01*
X117112990Y-117126001D01*
X117112983Y-117125997D01*
X116989555Y-117063107D01*
X116946290Y-117019843D01*
X116935500Y-116974898D01*
X116935500Y-116093983D01*
X116931541Y-116079207D01*
X116906503Y-115985763D01*
X116906501Y-115985760D01*
X116906501Y-115985758D01*
X116850486Y-115888739D01*
X116850485Y-115888737D01*
X116771263Y-115809515D01*
X116771260Y-115809513D01*
X116674240Y-115753498D01*
X116674242Y-115753498D01*
X116619797Y-115738910D01*
X116566018Y-115724500D01*
X116566016Y-115724500D01*
X115424500Y-115724500D01*
X115366309Y-115705593D01*
X115330345Y-115656093D01*
X115325500Y-115625500D01*
X115325500Y-114064743D01*
X115344407Y-114006552D01*
X115354490Y-113994745D01*
X115380520Y-113968716D01*
X115459577Y-113831784D01*
X115500500Y-113679057D01*
X115500500Y-113520943D01*
X115459577Y-113368216D01*
X115380520Y-113231284D01*
X115380517Y-113231281D01*
X115354495Y-113205258D01*
X115326719Y-113150741D01*
X115325500Y-113135256D01*
X115325500Y-109743983D01*
X115325500Y-109743982D01*
X115296503Y-109635763D01*
X115296501Y-109635760D01*
X115296501Y-109635758D01*
X115240486Y-109538739D01*
X115240485Y-109538737D01*
X115161263Y-109459515D01*
X115161260Y-109459513D01*
X115064240Y-109403498D01*
X115064242Y-109403498D01*
X115022251Y-109392247D01*
X114956018Y-109374500D01*
X106156018Y-109374500D01*
X106043982Y-109374500D01*
X105977748Y-109392247D01*
X105935758Y-109403498D01*
X105838739Y-109459513D01*
X105759513Y-109538739D01*
X105703498Y-109635758D01*
X105703497Y-109635763D01*
X105674500Y-109743982D01*
X100250500Y-109743982D01*
X100250500Y-101603892D01*
X100250805Y-101596125D01*
X100254422Y-101550172D01*
X100266504Y-101396652D01*
X100268931Y-101381325D01*
X100314732Y-101190548D01*
X100319528Y-101175789D01*
X100394612Y-100994522D01*
X100401649Y-100980710D01*
X100504162Y-100813424D01*
X100513288Y-100800864D01*
X100640702Y-100651679D01*
X100651679Y-100640702D01*
X100800864Y-100513287D01*
X100813424Y-100504162D01*
X100980710Y-100401649D01*
X100994522Y-100394612D01*
X101175789Y-100319528D01*
X101190548Y-100314732D01*
X101381325Y-100268931D01*
X101396652Y-100266504D01*
X101568406Y-100252986D01*
X101596126Y-100250805D01*
X101603893Y-100250500D01*
X101644170Y-100250500D01*
X108501000Y-100250500D01*
X108559191Y-100269407D01*
G37*
%TD.AperFunction*%
%TD*%
M02*
