%TF.GenerationSoftware,KiCad,Pcbnew,9.0.7*%
%TF.CreationDate,2026-07-14T21:47:03-03:00*%
%TF.ProjectId,sht45-qt,73687434-352d-4717-942e-6b696361645f,1.0*%
%TF.SameCoordinates,Original*%
%TF.FileFunction,Soldermask,Top*%
%TF.FilePolarity,Negative*%
%FSLAX46Y46*%
G04 Gerber Fmt 4.6, Leading zero omitted, Abs format (unit mm)*
G04 Created by KiCad (PCBNEW 9.0.7) date 2026-07-14 21:47:03*
%MOMM*%
%LPD*%
G01*
G04 APERTURE LIST*
G04 APERTURE END LIST*
G36*
X109740000Y-118960000D02*
G01*
X108040000Y-118960000D01*
X108040000Y-117260000D01*
X109740000Y-117260000D01*
X109740000Y-118960000D01*
G37*
G36*
X111676742Y-117296601D02*
G01*
X111830687Y-117360367D01*
X111969234Y-117452941D01*
X112087059Y-117570766D01*
X112179633Y-117709313D01*
X112243399Y-117863258D01*
X112275907Y-118026685D01*
X112275907Y-118193315D01*
X112243399Y-118356742D01*
X112179633Y-118510687D01*
X112087059Y-118649234D01*
X111969234Y-118767059D01*
X111830687Y-118859633D01*
X111676742Y-118923399D01*
X111513315Y-118955907D01*
X111346685Y-118955907D01*
X111183258Y-118923399D01*
X111029313Y-118859633D01*
X110890766Y-118767059D01*
X110772941Y-118649234D01*
X110680367Y-118510687D01*
X110616601Y-118356742D01*
X110584093Y-118193315D01*
X110584093Y-118026685D01*
X110616601Y-117863258D01*
X110680367Y-117709313D01*
X110772941Y-117570766D01*
X110890766Y-117452941D01*
X111029313Y-117360367D01*
X111183258Y-117296601D01*
X111346685Y-117264093D01*
X111513315Y-117264093D01*
X111676742Y-117296601D01*
G37*
G36*
X114216742Y-117296601D02*
G01*
X114370687Y-117360367D01*
X114509234Y-117452941D01*
X114627059Y-117570766D01*
X114719633Y-117709313D01*
X114783399Y-117863258D01*
X114815907Y-118026685D01*
X114815907Y-118193315D01*
X114783399Y-118356742D01*
X114719633Y-118510687D01*
X114627059Y-118649234D01*
X114509234Y-118767059D01*
X114370687Y-118859633D01*
X114216742Y-118923399D01*
X114053315Y-118955907D01*
X113886685Y-118955907D01*
X113723258Y-118923399D01*
X113569313Y-118859633D01*
X113430766Y-118767059D01*
X113312941Y-118649234D01*
X113220367Y-118510687D01*
X113156601Y-118356742D01*
X113124093Y-118193315D01*
X113124093Y-118026685D01*
X113156601Y-117863258D01*
X113220367Y-117709313D01*
X113312941Y-117570766D01*
X113430766Y-117452941D01*
X113569313Y-117360367D01*
X113723258Y-117296601D01*
X113886685Y-117264093D01*
X114053315Y-117264093D01*
X114216742Y-117296601D01*
G37*
G36*
X116756742Y-117296601D02*
G01*
X116910687Y-117360367D01*
X117049234Y-117452941D01*
X117167059Y-117570766D01*
X117259633Y-117709313D01*
X117323399Y-117863258D01*
X117355907Y-118026685D01*
X117355907Y-118193315D01*
X117323399Y-118356742D01*
X117259633Y-118510687D01*
X117167059Y-118649234D01*
X117049234Y-118767059D01*
X116910687Y-118859633D01*
X116756742Y-118923399D01*
X116593315Y-118955907D01*
X116426685Y-118955907D01*
X116263258Y-118923399D01*
X116109313Y-118859633D01*
X115970766Y-118767059D01*
X115852941Y-118649234D01*
X115760367Y-118510687D01*
X115696601Y-118356742D01*
X115664093Y-118193315D01*
X115664093Y-118026685D01*
X115696601Y-117863258D01*
X115760367Y-117709313D01*
X115852941Y-117570766D01*
X115970766Y-117452941D01*
X116109313Y-117360367D01*
X116263258Y-117296601D01*
X116426685Y-117264093D01*
X116593315Y-117264093D01*
X116756742Y-117296601D01*
G37*
G36*
X103715151Y-115987301D02*
G01*
X103916623Y-116052763D01*
X104105373Y-116148936D01*
X104276755Y-116273452D01*
X104426548Y-116423245D01*
X104551064Y-116594627D01*
X104647237Y-116783377D01*
X104712699Y-116984849D01*
X104745838Y-117194080D01*
X104745838Y-117405920D01*
X104712699Y-117615151D01*
X104647237Y-117816623D01*
X104551064Y-118005373D01*
X104426548Y-118176755D01*
X104276755Y-118326548D01*
X104105373Y-118451064D01*
X103916623Y-118547237D01*
X103715151Y-118612699D01*
X103505920Y-118645838D01*
X103294080Y-118645838D01*
X103084849Y-118612699D01*
X102883377Y-118547237D01*
X102694627Y-118451064D01*
X102523245Y-118326548D01*
X102373452Y-118176755D01*
X102248936Y-118005373D01*
X102152763Y-117816623D01*
X102087301Y-117615151D01*
X102054162Y-117405920D01*
X102054162Y-117194080D01*
X102087301Y-116984849D01*
X102152763Y-116783377D01*
X102248936Y-116594627D01*
X102373452Y-116423245D01*
X102523245Y-116273452D01*
X102694627Y-116148936D01*
X102883377Y-116052763D01*
X103084849Y-115987301D01*
X103294080Y-115954162D01*
X103505920Y-115954162D01*
X103715151Y-115987301D01*
G37*
G36*
X122315151Y-115987301D02*
G01*
X122516623Y-116052763D01*
X122705373Y-116148936D01*
X122876755Y-116273452D01*
X123026548Y-116423245D01*
X123151064Y-116594627D01*
X123247237Y-116783377D01*
X123312699Y-116984849D01*
X123345838Y-117194080D01*
X123345838Y-117405920D01*
X123312699Y-117615151D01*
X123247237Y-117816623D01*
X123151064Y-118005373D01*
X123026548Y-118176755D01*
X122876755Y-118326548D01*
X122705373Y-118451064D01*
X122516623Y-118547237D01*
X122315151Y-118612699D01*
X122105920Y-118645838D01*
X121894080Y-118645838D01*
X121684849Y-118612699D01*
X121483377Y-118547237D01*
X121294627Y-118451064D01*
X121123245Y-118326548D01*
X120973452Y-118176755D01*
X120848936Y-118005373D01*
X120752763Y-117816623D01*
X120687301Y-117615151D01*
X120654162Y-117405920D01*
X120654162Y-117194080D01*
X120687301Y-116984849D01*
X120752763Y-116783377D01*
X120848936Y-116594627D01*
X120973452Y-116423245D01*
X121123245Y-116273452D01*
X121294627Y-116148936D01*
X121483377Y-116052763D01*
X121684849Y-115987301D01*
X121894080Y-115954162D01*
X122105920Y-115954162D01*
X122315151Y-115987301D01*
G37*
G36*
X102109047Y-112200805D02*
G01*
X102160408Y-112206764D01*
X102177954Y-112214511D01*
X102200671Y-112219030D01*
X102224991Y-112235280D01*
X102245793Y-112244465D01*
X102260000Y-112258672D01*
X102281777Y-112273223D01*
X102296327Y-112294999D01*
X102310534Y-112309206D01*
X102319718Y-112330006D01*
X102335970Y-112354329D01*
X102340489Y-112377048D01*
X102348235Y-112394591D01*
X102354192Y-112445940D01*
X102355000Y-112450000D01*
X102355000Y-113150000D01*
X102354192Y-113154059D01*
X102348235Y-113205408D01*
X102340489Y-113222950D01*
X102335970Y-113245671D01*
X102319716Y-113269995D01*
X102310534Y-113290793D01*
X102296329Y-113304997D01*
X102281777Y-113326777D01*
X102259997Y-113341329D01*
X102245793Y-113355534D01*
X102224995Y-113364716D01*
X102200671Y-113380970D01*
X102177950Y-113385489D01*
X102160408Y-113393235D01*
X102109061Y-113399192D01*
X102105000Y-113400000D01*
X100805000Y-113400000D01*
X100800941Y-113399192D01*
X100749591Y-113393235D01*
X100732048Y-113385489D01*
X100709329Y-113380970D01*
X100685006Y-113364718D01*
X100664206Y-113355534D01*
X100649999Y-113341327D01*
X100628223Y-113326777D01*
X100613672Y-113305000D01*
X100599465Y-113290793D01*
X100590280Y-113269991D01*
X100574030Y-113245671D01*
X100569511Y-113222954D01*
X100561764Y-113205408D01*
X100555805Y-113154049D01*
X100555000Y-113150000D01*
X100555000Y-112450000D01*
X100555804Y-112445953D01*
X100561764Y-112394591D01*
X100569511Y-112377043D01*
X100574030Y-112354329D01*
X100590278Y-112330010D01*
X100599465Y-112309206D01*
X100613674Y-112294996D01*
X100628223Y-112273223D01*
X100649996Y-112258674D01*
X100664206Y-112244465D01*
X100685010Y-112235278D01*
X100709329Y-112219030D01*
X100732043Y-112214511D01*
X100749591Y-112206764D01*
X100800952Y-112200805D01*
X100805000Y-112200000D01*
X102105000Y-112200000D01*
X102109047Y-112200805D01*
G37*
G36*
X124599047Y-112200805D02*
G01*
X124650408Y-112206764D01*
X124667954Y-112214511D01*
X124690671Y-112219030D01*
X124714991Y-112235280D01*
X124735793Y-112244465D01*
X124750000Y-112258672D01*
X124771777Y-112273223D01*
X124786327Y-112294999D01*
X124800534Y-112309206D01*
X124809718Y-112330006D01*
X124825970Y-112354329D01*
X124830489Y-112377048D01*
X124838235Y-112394591D01*
X124844192Y-112445940D01*
X124845000Y-112450000D01*
X124845000Y-113150000D01*
X124844192Y-113154059D01*
X124838235Y-113205408D01*
X124830489Y-113222950D01*
X124825970Y-113245671D01*
X124809716Y-113269995D01*
X124800534Y-113290793D01*
X124786329Y-113304997D01*
X124771777Y-113326777D01*
X124749997Y-113341329D01*
X124735793Y-113355534D01*
X124714995Y-113364716D01*
X124690671Y-113380970D01*
X124667950Y-113385489D01*
X124650408Y-113393235D01*
X124599061Y-113399192D01*
X124595000Y-113400000D01*
X123295000Y-113400000D01*
X123290941Y-113399192D01*
X123239591Y-113393235D01*
X123222048Y-113385489D01*
X123199329Y-113380970D01*
X123175006Y-113364718D01*
X123154206Y-113355534D01*
X123139999Y-113341327D01*
X123118223Y-113326777D01*
X123103672Y-113305000D01*
X123089465Y-113290793D01*
X123080280Y-113269991D01*
X123064030Y-113245671D01*
X123059511Y-113222954D01*
X123051764Y-113205408D01*
X123045805Y-113154049D01*
X123045000Y-113150000D01*
X123045000Y-112450000D01*
X123045804Y-112445953D01*
X123051764Y-112394591D01*
X123059511Y-112377043D01*
X123064030Y-112354329D01*
X123080278Y-112330010D01*
X123089465Y-112309206D01*
X123103674Y-112294996D01*
X123118223Y-112273223D01*
X123139996Y-112258674D01*
X123154206Y-112244465D01*
X123175010Y-112235278D01*
X123199329Y-112219030D01*
X123222043Y-112214511D01*
X123239591Y-112206764D01*
X123290952Y-112200805D01*
X123295000Y-112200000D01*
X124595000Y-112200000D01*
X124599047Y-112200805D01*
G37*
G36*
X110951537Y-112140224D02*
G01*
X111016421Y-112183579D01*
X111059776Y-112248463D01*
X111075000Y-112325000D01*
X111075000Y-112725000D01*
X111059776Y-112801537D01*
X111016421Y-112866421D01*
X110951537Y-112909776D01*
X110875000Y-112925000D01*
X110325000Y-112925000D01*
X110248463Y-112909776D01*
X110183579Y-112866421D01*
X110140224Y-112801537D01*
X110125000Y-112725000D01*
X110125000Y-112325000D01*
X110140224Y-112248463D01*
X110183579Y-112183579D01*
X110248463Y-112140224D01*
X110325000Y-112125000D01*
X110875000Y-112125000D01*
X110951537Y-112140224D01*
G37*
G36*
X115251537Y-112140224D02*
G01*
X115316421Y-112183579D01*
X115359776Y-112248463D01*
X115375000Y-112325000D01*
X115375000Y-112725000D01*
X115359776Y-112801537D01*
X115316421Y-112866421D01*
X115251537Y-112909776D01*
X115175000Y-112925000D01*
X114625000Y-112925000D01*
X114548463Y-112909776D01*
X114483579Y-112866421D01*
X114440224Y-112801537D01*
X114425000Y-112725000D01*
X114425000Y-112325000D01*
X114440224Y-112248463D01*
X114483579Y-112183579D01*
X114548463Y-112140224D01*
X114625000Y-112125000D01*
X115175000Y-112125000D01*
X115251537Y-112140224D01*
G37*
G36*
X106012403Y-111211418D02*
G01*
X106061066Y-111243934D01*
X106093582Y-111292597D01*
X106105000Y-111350000D01*
X106105000Y-111650000D01*
X106093582Y-111707403D01*
X106061066Y-111756066D01*
X106012403Y-111788582D01*
X105955000Y-111800000D01*
X104705000Y-111800000D01*
X104647597Y-111788582D01*
X104598934Y-111756066D01*
X104566418Y-111707403D01*
X104555000Y-111650000D01*
X104555000Y-111350000D01*
X104566418Y-111292597D01*
X104598934Y-111243934D01*
X104647597Y-111211418D01*
X104705000Y-111200000D01*
X105955000Y-111200000D01*
X106012403Y-111211418D01*
G37*
G36*
X120752403Y-111211418D02*
G01*
X120801066Y-111243934D01*
X120833582Y-111292597D01*
X120845000Y-111350000D01*
X120845000Y-111650000D01*
X120833582Y-111707403D01*
X120801066Y-111756066D01*
X120752403Y-111788582D01*
X120695000Y-111800000D01*
X119445000Y-111800000D01*
X119387597Y-111788582D01*
X119338934Y-111756066D01*
X119306418Y-111707403D01*
X119295000Y-111650000D01*
X119295000Y-111350000D01*
X119306418Y-111292597D01*
X119338934Y-111243934D01*
X119387597Y-111211418D01*
X119445000Y-111200000D01*
X120695000Y-111200000D01*
X120752403Y-111211418D01*
G37*
G36*
X110951537Y-110490224D02*
G01*
X111016421Y-110533579D01*
X111059776Y-110598463D01*
X111075000Y-110675000D01*
X111075000Y-111075000D01*
X111059776Y-111151537D01*
X111016421Y-111216421D01*
X110951537Y-111259776D01*
X110875000Y-111275000D01*
X110325000Y-111275000D01*
X110248463Y-111259776D01*
X110183579Y-111216421D01*
X110140224Y-111151537D01*
X110125000Y-111075000D01*
X110125000Y-110675000D01*
X110140224Y-110598463D01*
X110183579Y-110533579D01*
X110248463Y-110490224D01*
X110325000Y-110475000D01*
X110875000Y-110475000D01*
X110951537Y-110490224D01*
G37*
G36*
X115251537Y-110490224D02*
G01*
X115316421Y-110533579D01*
X115359776Y-110598463D01*
X115375000Y-110675000D01*
X115375000Y-111075000D01*
X115359776Y-111151537D01*
X115316421Y-111216421D01*
X115251537Y-111259776D01*
X115175000Y-111275000D01*
X114625000Y-111275000D01*
X114548463Y-111259776D01*
X114483579Y-111216421D01*
X114440224Y-111151537D01*
X114425000Y-111075000D01*
X114425000Y-110675000D01*
X114440224Y-110598463D01*
X114483579Y-110533579D01*
X114548463Y-110490224D01*
X114625000Y-110475000D01*
X115175000Y-110475000D01*
X115251537Y-110490224D01*
G37*
G36*
X106012403Y-110211418D02*
G01*
X106061066Y-110243934D01*
X106093582Y-110292597D01*
X106105000Y-110350000D01*
X106105000Y-110650000D01*
X106093582Y-110707403D01*
X106061066Y-110756066D01*
X106012403Y-110788582D01*
X105955000Y-110800000D01*
X104705000Y-110800000D01*
X104647597Y-110788582D01*
X104598934Y-110756066D01*
X104566418Y-110707403D01*
X104555000Y-110650000D01*
X104555000Y-110350000D01*
X104566418Y-110292597D01*
X104598934Y-110243934D01*
X104647597Y-110211418D01*
X104705000Y-110200000D01*
X105955000Y-110200000D01*
X106012403Y-110211418D01*
G37*
G36*
X120752403Y-110211418D02*
G01*
X120801066Y-110243934D01*
X120833582Y-110292597D01*
X120845000Y-110350000D01*
X120845000Y-110650000D01*
X120833582Y-110707403D01*
X120801066Y-110756066D01*
X120752403Y-110788582D01*
X120695000Y-110800000D01*
X119445000Y-110800000D01*
X119387597Y-110788582D01*
X119338934Y-110756066D01*
X119306418Y-110707403D01*
X119295000Y-110650000D01*
X119295000Y-110350000D01*
X119306418Y-110292597D01*
X119338934Y-110243934D01*
X119387597Y-110211418D01*
X119445000Y-110200000D01*
X120695000Y-110200000D01*
X120752403Y-110211418D01*
G37*
G36*
X106012403Y-109211418D02*
G01*
X106061066Y-109243934D01*
X106093582Y-109292597D01*
X106105000Y-109350000D01*
X106105000Y-109650000D01*
X106093582Y-109707403D01*
X106061066Y-109756066D01*
X106012403Y-109788582D01*
X105955000Y-109800000D01*
X104705000Y-109800000D01*
X104647597Y-109788582D01*
X104598934Y-109756066D01*
X104566418Y-109707403D01*
X104555000Y-109650000D01*
X104555000Y-109350000D01*
X104566418Y-109292597D01*
X104598934Y-109243934D01*
X104647597Y-109211418D01*
X104705000Y-109200000D01*
X105955000Y-109200000D01*
X106012403Y-109211418D01*
G37*
G36*
X120752403Y-109211418D02*
G01*
X120801066Y-109243934D01*
X120833582Y-109292597D01*
X120845000Y-109350000D01*
X120845000Y-109650000D01*
X120833582Y-109707403D01*
X120801066Y-109756066D01*
X120752403Y-109788582D01*
X120695000Y-109800000D01*
X119445000Y-109800000D01*
X119387597Y-109788582D01*
X119338934Y-109756066D01*
X119306418Y-109707403D01*
X119295000Y-109650000D01*
X119295000Y-109350000D01*
X119306418Y-109292597D01*
X119338934Y-109243934D01*
X119387597Y-109211418D01*
X119445000Y-109200000D01*
X120695000Y-109200000D01*
X120752403Y-109211418D01*
G37*
G36*
X113453536Y-107996464D02*
G01*
X113454807Y-107999534D01*
X113457147Y-108000000D01*
X113742853Y-108000000D01*
X113745192Y-107999534D01*
X113746464Y-107996464D01*
X113750000Y-107995000D01*
X114250000Y-107995000D01*
X114253536Y-107996464D01*
X114254637Y-107999125D01*
X114255404Y-107999278D01*
X114311988Y-107999278D01*
X114315263Y-107999278D01*
X114316557Y-107999448D01*
X114319720Y-108000295D01*
X114319723Y-108000296D01*
X114439465Y-108032380D01*
X114439467Y-108032380D01*
X114442636Y-108033230D01*
X114443842Y-108033730D01*
X114446676Y-108035366D01*
X114446685Y-108035370D01*
X114554040Y-108097352D01*
X114554043Y-108097355D01*
X114556881Y-108098993D01*
X114557917Y-108099787D01*
X114650213Y-108192083D01*
X114651007Y-108193119D01*
X114652645Y-108195957D01*
X114652647Y-108195959D01*
X114714629Y-108303314D01*
X114714631Y-108303320D01*
X114716270Y-108306158D01*
X114716770Y-108307364D01*
X114750552Y-108433443D01*
X114750722Y-108434737D01*
X114750722Y-108438012D01*
X114750722Y-108494596D01*
X114750874Y-108495361D01*
X114753536Y-108496464D01*
X114755000Y-108500000D01*
X114755000Y-109000000D01*
X114753536Y-109003536D01*
X114750873Y-109004638D01*
X114750722Y-109005402D01*
X114750722Y-109065263D01*
X114750552Y-109066557D01*
X114716770Y-109192636D01*
X114716270Y-109193842D01*
X114714630Y-109196682D01*
X114714629Y-109196685D01*
X114686950Y-109244626D01*
X114651007Y-109306881D01*
X114650213Y-109307917D01*
X114557917Y-109400213D01*
X114556881Y-109401007D01*
X114554040Y-109402647D01*
X114446685Y-109464629D01*
X114446682Y-109464630D01*
X114443842Y-109466270D01*
X114442636Y-109466770D01*
X114316557Y-109500552D01*
X114315263Y-109500722D01*
X114311988Y-109500722D01*
X114255404Y-109500722D01*
X114254637Y-109500874D01*
X114253536Y-109503536D01*
X114250000Y-109505000D01*
X114240054Y-109505000D01*
X113759946Y-109505000D01*
X113750000Y-109505000D01*
X113746464Y-109503536D01*
X113745192Y-109500465D01*
X113742853Y-109500000D01*
X113457147Y-109500000D01*
X113454807Y-109500465D01*
X113453536Y-109503536D01*
X113450000Y-109505000D01*
X113440054Y-109505000D01*
X112959946Y-109505000D01*
X112950000Y-109505000D01*
X112946464Y-109503536D01*
X112945362Y-109500874D01*
X112944596Y-109500722D01*
X112884737Y-109500722D01*
X112883443Y-109500552D01*
X112757364Y-109466770D01*
X112756158Y-109466270D01*
X112753320Y-109464631D01*
X112753314Y-109464629D01*
X112645959Y-109402647D01*
X112645957Y-109402645D01*
X112643119Y-109401007D01*
X112642083Y-109400213D01*
X112549787Y-109307917D01*
X112548993Y-109306881D01*
X112547355Y-109304043D01*
X112547352Y-109304040D01*
X112485370Y-109196685D01*
X112485366Y-109196676D01*
X112483730Y-109193842D01*
X112483230Y-109192636D01*
X112449448Y-109066557D01*
X112449278Y-109065263D01*
X112449278Y-109005402D01*
X112449126Y-109004638D01*
X112446464Y-109003536D01*
X112445000Y-109000000D01*
X112445000Y-108500000D01*
X112446464Y-108496464D01*
X112449125Y-108495361D01*
X112449278Y-108494596D01*
X112449278Y-108438012D01*
X112449278Y-108434737D01*
X112449448Y-108433443D01*
X112450295Y-108430280D01*
X112450296Y-108430276D01*
X112482380Y-108310534D01*
X112482381Y-108310529D01*
X112483230Y-108307364D01*
X112483730Y-108306158D01*
X112485364Y-108303326D01*
X112485370Y-108303314D01*
X112547352Y-108195959D01*
X112547357Y-108195952D01*
X112548993Y-108193119D01*
X112549787Y-108192083D01*
X112642083Y-108099787D01*
X112643119Y-108098993D01*
X112645952Y-108097357D01*
X112645959Y-108097352D01*
X112753314Y-108035370D01*
X112753326Y-108035364D01*
X112756158Y-108033730D01*
X112757364Y-108033230D01*
X112760529Y-108032381D01*
X112760534Y-108032380D01*
X112880276Y-108000296D01*
X112880280Y-108000295D01*
X112883443Y-107999448D01*
X112884737Y-107999278D01*
X112944596Y-107999278D01*
X112945362Y-107999125D01*
X112946464Y-107996464D01*
X112950000Y-107995000D01*
X113450000Y-107995000D01*
X113453536Y-107996464D01*
G37*
G36*
X109836104Y-107992127D02*
G01*
X109909099Y-108040901D01*
X109957873Y-108113896D01*
X109975000Y-108200000D01*
X109975000Y-108700000D01*
X109957873Y-108786104D01*
X109909099Y-108859099D01*
X109836104Y-108907873D01*
X109750000Y-108925000D01*
X109300000Y-108925000D01*
X109213896Y-108907873D01*
X109140901Y-108859099D01*
X109092127Y-108786104D01*
X109075000Y-108700000D01*
X109075000Y-108200000D01*
X109092127Y-108113896D01*
X109140901Y-108040901D01*
X109213896Y-107992127D01*
X109300000Y-107975000D01*
X109750000Y-107975000D01*
X109836104Y-107992127D01*
G37*
G36*
X111386104Y-107992127D02*
G01*
X111459099Y-108040901D01*
X111507873Y-108113896D01*
X111525000Y-108200000D01*
X111525000Y-108700000D01*
X111507873Y-108786104D01*
X111459099Y-108859099D01*
X111386104Y-108907873D01*
X111300000Y-108925000D01*
X110850000Y-108925000D01*
X110763896Y-108907873D01*
X110690901Y-108859099D01*
X110642127Y-108786104D01*
X110625000Y-108700000D01*
X110625000Y-108200000D01*
X110642127Y-108113896D01*
X110690901Y-108040901D01*
X110763896Y-107992127D01*
X110850000Y-107975000D01*
X111300000Y-107975000D01*
X111386104Y-107992127D01*
G37*
G36*
X106012403Y-108211418D02*
G01*
X106061066Y-108243934D01*
X106093582Y-108292597D01*
X106105000Y-108350000D01*
X106105000Y-108650000D01*
X106093582Y-108707403D01*
X106061066Y-108756066D01*
X106012403Y-108788582D01*
X105955000Y-108800000D01*
X104705000Y-108800000D01*
X104647597Y-108788582D01*
X104598934Y-108756066D01*
X104566418Y-108707403D01*
X104555000Y-108650000D01*
X104555000Y-108350000D01*
X104566418Y-108292597D01*
X104598934Y-108243934D01*
X104647597Y-108211418D01*
X104705000Y-108200000D01*
X105955000Y-108200000D01*
X106012403Y-108211418D01*
G37*
G36*
X120752403Y-108211418D02*
G01*
X120801066Y-108243934D01*
X120833582Y-108292597D01*
X120845000Y-108350000D01*
X120845000Y-108650000D01*
X120833582Y-108707403D01*
X120801066Y-108756066D01*
X120752403Y-108788582D01*
X120695000Y-108800000D01*
X119445000Y-108800000D01*
X119387597Y-108788582D01*
X119338934Y-108756066D01*
X119306418Y-108707403D01*
X119295000Y-108650000D01*
X119295000Y-108350000D01*
X119306418Y-108292597D01*
X119338934Y-108243934D01*
X119387597Y-108211418D01*
X119445000Y-108200000D01*
X120695000Y-108200000D01*
X120752403Y-108211418D01*
G37*
G36*
X102109047Y-106600805D02*
G01*
X102160408Y-106606764D01*
X102177954Y-106614511D01*
X102200671Y-106619030D01*
X102224991Y-106635280D01*
X102245793Y-106644465D01*
X102260000Y-106658672D01*
X102281777Y-106673223D01*
X102296327Y-106694999D01*
X102310534Y-106709206D01*
X102319718Y-106730006D01*
X102335970Y-106754329D01*
X102340489Y-106777048D01*
X102348235Y-106794591D01*
X102354192Y-106845940D01*
X102355000Y-106850000D01*
X102355000Y-107550000D01*
X102354192Y-107554059D01*
X102348235Y-107605408D01*
X102340489Y-107622950D01*
X102335970Y-107645671D01*
X102319716Y-107669995D01*
X102310534Y-107690793D01*
X102296329Y-107704997D01*
X102281777Y-107726777D01*
X102259997Y-107741329D01*
X102245793Y-107755534D01*
X102224995Y-107764716D01*
X102200671Y-107780970D01*
X102177950Y-107785489D01*
X102160408Y-107793235D01*
X102109061Y-107799192D01*
X102105000Y-107800000D01*
X100805000Y-107800000D01*
X100800941Y-107799192D01*
X100749591Y-107793235D01*
X100732048Y-107785489D01*
X100709329Y-107780970D01*
X100685006Y-107764718D01*
X100664206Y-107755534D01*
X100649999Y-107741327D01*
X100628223Y-107726777D01*
X100613672Y-107705000D01*
X100599465Y-107690793D01*
X100590280Y-107669991D01*
X100574030Y-107645671D01*
X100569511Y-107622954D01*
X100561764Y-107605408D01*
X100555805Y-107554049D01*
X100555000Y-107550000D01*
X100555000Y-106850000D01*
X100555804Y-106845953D01*
X100561764Y-106794591D01*
X100569511Y-106777043D01*
X100574030Y-106754329D01*
X100590278Y-106730010D01*
X100599465Y-106709206D01*
X100613674Y-106694996D01*
X100628223Y-106673223D01*
X100649996Y-106658674D01*
X100664206Y-106644465D01*
X100685010Y-106635278D01*
X100709329Y-106619030D01*
X100732043Y-106614511D01*
X100749591Y-106606764D01*
X100800952Y-106600805D01*
X100805000Y-106600000D01*
X102105000Y-106600000D01*
X102109047Y-106600805D01*
G37*
G36*
X124599047Y-106600805D02*
G01*
X124650408Y-106606764D01*
X124667954Y-106614511D01*
X124690671Y-106619030D01*
X124714991Y-106635280D01*
X124735793Y-106644465D01*
X124750000Y-106658672D01*
X124771777Y-106673223D01*
X124786327Y-106694999D01*
X124800534Y-106709206D01*
X124809718Y-106730006D01*
X124825970Y-106754329D01*
X124830489Y-106777048D01*
X124838235Y-106794591D01*
X124844192Y-106845940D01*
X124845000Y-106850000D01*
X124845000Y-107550000D01*
X124844192Y-107554059D01*
X124838235Y-107605408D01*
X124830489Y-107622950D01*
X124825970Y-107645671D01*
X124809716Y-107669995D01*
X124800534Y-107690793D01*
X124786329Y-107704997D01*
X124771777Y-107726777D01*
X124749997Y-107741329D01*
X124735793Y-107755534D01*
X124714995Y-107764716D01*
X124690671Y-107780970D01*
X124667950Y-107785489D01*
X124650408Y-107793235D01*
X124599061Y-107799192D01*
X124595000Y-107800000D01*
X123295000Y-107800000D01*
X123290941Y-107799192D01*
X123239591Y-107793235D01*
X123222048Y-107785489D01*
X123199329Y-107780970D01*
X123175006Y-107764718D01*
X123154206Y-107755534D01*
X123139999Y-107741327D01*
X123118223Y-107726777D01*
X123103672Y-107705000D01*
X123089465Y-107690793D01*
X123080280Y-107669991D01*
X123064030Y-107645671D01*
X123059511Y-107622954D01*
X123051764Y-107605408D01*
X123045805Y-107554049D01*
X123045000Y-107550000D01*
X123045000Y-106850000D01*
X123045804Y-106845953D01*
X123051764Y-106794591D01*
X123059511Y-106777043D01*
X123064030Y-106754329D01*
X123080278Y-106730010D01*
X123089465Y-106709206D01*
X123103674Y-106694996D01*
X123118223Y-106673223D01*
X123139996Y-106658674D01*
X123154206Y-106644465D01*
X123175010Y-106635278D01*
X123199329Y-106619030D01*
X123222043Y-106614511D01*
X123239591Y-106606764D01*
X123290952Y-106600805D01*
X123295000Y-106600000D01*
X124595000Y-106600000D01*
X124599047Y-106600805D01*
G37*
G36*
X112950000Y-104450000D02*
G01*
X112650000Y-104450000D01*
X112650000Y-103950000D01*
X112950000Y-103950000D01*
X112950000Y-104450000D01*
G37*
G36*
X113750000Y-104450000D02*
G01*
X113450000Y-104450000D01*
X113450000Y-103950000D01*
X113750000Y-103950000D01*
X113750000Y-104450000D01*
G37*
G36*
X112950000Y-103050000D02*
G01*
X112650000Y-103050000D01*
X112650000Y-102550000D01*
X112950000Y-102550000D01*
X112950000Y-103050000D01*
G37*
G36*
X113750000Y-103050000D02*
G01*
X113450000Y-103050000D01*
X113450000Y-102550000D01*
X113750000Y-102550000D01*
X113750000Y-103050000D01*
G37*
M02*
